<?xml version="1.0" encoding="utf-8"?>
<!-- Generator: Adobe Illustrator 21.0.0, SVG Export Plug-In . SVG Version: 6.00 Build 0)  -->
<svg version="1.1" id="レイヤー_1" xmlns="http://www.w3.org/2000/svg" xmlns:xlink="http://www.w3.org/1999/xlink" x="0px"
	 y="0px" width="40.8px" height="27.7px" viewBox="0 0 40.8 27.7" style="enable-background:new 0 0 40.8 27.7;"
	 xml:space="preserve">
<style type="text/css">
	.st0{fill:none;stroke:#000000;stroke-width:0.5;stroke-linecap:round;stroke-linejoin:round;stroke-miterlimit:10;}
	.st1{fill:none;stroke:#000000;stroke-width:0.3;stroke-linecap:round;stroke-linejoin:round;stroke-miterlimit:10;}
</style>
<g>
	<path class="st0" d="M35.6,2.7c-0.7,0-0.8,0-3-0.5c-2-0.4-4.2-1.7-6.4-1.7c-2.6,0-4.2,1-5,1.9c-0.3,0.3-0.6,0.6-0.8,0.9
		c-0.2-0.3-0.4-0.7-0.8-1c-0.9-0.9-2.4-2.1-5-2.1c-2.2,0-4.4,0.7-6.3,1.4c-1.5,0.5-1.9,1-3.1,1c-0.3,0-0.5,0.2-0.5,0.5l0,21.4
		C4.7,24.8,5,25,5.3,25c1.3,0,7.3-0.6,9.3-0.6c1.8,0,4.1-0.2,5.1,1c0.1,0.1,1.2,0.1,1.3,0c1.1-1.1,3.4-1,5.1-1c2.1,0,8,0.6,9.3,0.6
		c0.3,0,0.5-0.2,0.5-0.5l0-20.7C36.1,2.7,35.8,2.7,35.6,2.7z M33.3,2.6"/>
	<line class="st0" x1="20.4" y1="4.5" x2="20.4" y2="24.2"/>
	<line class="st1" x1="19.7" y1="2.6" x2="19.7" y2="6.7"/>
	<line class="st1" x1="19.9" y1="10.7" x2="19.9" y2="14.8"/>
	<line class="st1" x1="19.7" y1="23.3" x2="19.7" y2="25"/>
	<line class="st1" x1="21.2" y1="21.5" x2="21.2" y2="25.3"/>
	<line class="st1" x1="21.4" y1="2.3" x2="21.4" y2="4"/>
	<line class="st1" x1="35.3" y1="2.9" x2="35.3" y2="7.8"/>
	<line class="st1" x1="5.9" y1="2.8" x2="5.9" y2="3.7"/>
	<line class="st1" x1="5.9" y1="19.9" x2="5.9" y2="23.4"/>
	<line class="st1" x1="7" y1="23.6" x2="7" y2="24.6"/>
	<line class="st1" x1="21.4" y1="4.7" x2="21.4" y2="5.6"/>
	<line class="st1" x1="20.9" y1="8.9" x2="20.9" y2="9.8"/>
	<line class="st1" x1="34.8" y1="23.9" x2="34.8" y2="24.9"/>
	<line class="st1" x1="34.3" y1="23.9" x2="34.3" y2="24.9"/>
	<line class="st1" x1="19" y1="23" x2="19" y2="24.7"/>
	<g>
		<path class="st0" d="M4.5,3.4C3.1,4.3,1.7,4.3,1.2,4.3s0,0.9,0,5c0,1.9,0,15,0,16.9c0,1,0.4,1.3,1.5,1.3c1.4,0,17.9,0,17.9,0"/>
		<line class="st0" x1="4.9" y1="25" x2="1.6" y2="27.1"/>
		<line class="st1" x1="3.9" y1="4.1" x2="3.9" y2="11.4"/>
		<line class="st1" x1="3.9" y1="18.5" x2="3.9" y2="25.8"/>
		<line class="st1" x1="4" y1="25.8" x2="11.4" y2="25.8"/>
		<line class="st1" x1="2.9" y1="26.3" x2="18.5" y2="26.3"/>
		<line class="st1" x1="2.2" y1="26.7" x2="21.4" y2="26.7"/>
		<line class="st1" x1="2.1" y1="4.5" x2="2.1" y2="11.9"/>
		<line class="st1" x1="3.1" y1="12.8" x2="3.1" y2="21.6"/>
		<line class="st1" x1="2.2" y1="17.7" x2="2.2" y2="23.7"/>
		<line class="st1" x1="2.2" y1="25.5" x2="2.2" y2="26.6"/>
		<line class="st1" x1="2.9" y1="4.2" x2="2.9" y2="7.7"/>
		<path class="st0" d="M4.1,3.7H0.6C0.4,3.7,0.3,3.8,0.3,4l0.9,22.2"/>
		<line class="st1" x1="12.5" y1="25.8" x2="18.9" y2="25.8"/>
		<line class="st1" x1="10.6" y1="25.3" x2="17" y2="25.3"/>
	</g>
	<g>
		<path class="st0" d="M36.2,3.4c1.5,0.8,2.8,0.9,3.3,0.9s0,0.9,0,5c0,1.9,0,15,0,16.9c0,1-0.4,1.3-1.5,1.3c-1.4,0-17.9,0-17.9,0"/>
		<line class="st0" x1="35.9" y1="25" x2="39.1" y2="27.1"/>
		<line class="st1" x1="36.9" y1="4.1" x2="36.9" y2="11.4"/>
		<line class="st1" x1="36.9" y1="18.5" x2="36.9" y2="25.8"/>
		<line class="st1" x1="36.7" y1="25.8" x2="29.4" y2="25.8"/>
		<line class="st1" x1="37.8" y1="26.3" x2="29.7" y2="26.3"/>
		<line class="st1" x1="38.6" y1="26.7" x2="23" y2="26.7"/>
		<line class="st1" x1="38.6" y1="4.5" x2="38.6" y2="11.9"/>
		<line class="st1" x1="37.6" y1="12.8" x2="37.6" y2="21.6"/>
		<line class="st1" x1="38.6" y1="17.7" x2="38.6" y2="23.7"/>
		<line class="st1" x1="38.6" y1="25.5" x2="38.6" y2="26.6"/>
		<line class="st1" x1="37.9" y1="4.2" x2="37.9" y2="7.7"/>
		<path class="st0" d="M36.7,3.7h3.4c0.2,0,0.4,0.2,0.4,0.4l-0.9,22.2"/>
		<line class="st1" x1="27.8" y1="26.3" x2="23.3" y2="26.3"/>
		<line class="st1" x1="28.8" y1="25.4" x2="25.8" y2="25.4"/>
		<line class="st1" x1="25.4" y1="25.8" x2="20.9" y2="25.8"/>
	</g>
</g>
</svg>
