<?xml version="1.0" encoding="utf-8"?>
<!-- Generator: Adobe Illustrator 21.0.0, SVG Export Plug-In . SVG Version: 6.00 Build 0)  -->
<svg version="1.1" id="フッター" xmlns="http://www.w3.org/2000/svg" xmlns:xlink="http://www.w3.org/1999/xlink" x="0px"
	 y="0px" width="106px" height="85.5px" viewBox="0 0 106 85.5" style="enable-background:new 0 0 106 85.5;" xml:space="preserve">
<style type="text/css">
	.st0{fill:#231815;}
	.st1{fill:#FFFFFF;}
	.st2{fill:#B4904F;}
</style>
<g>
	<g>
		<path class="st0" d="M29.2,21c-3.1,1.7-7.5,3.6-9.6,4.2c-0.1,0-0.1,0.2,0,0.2C23,27,30.2,25,32.4,23.3
			C31.8,22.6,30.2,21.3,29.2,21z"/>
		<path class="st0" d="M44.7,10.3c0.4-0.6,1.1-1.7,2.3-2.9c-0.5,1.1-0.8,2.5-0.5,4.5c0.1,0.7,0.6,0.3,0.5,0
			c-0.3-3.2,1.2-5.1,1.8-5.8c1.3-1.3,2.4-0.5,2.1,0.6c-0.3,1.1-0.6,2.1-1,3.1c-0.4,0-0.7,0.1-1,0.3c-0.4,0.2-1.3,0.9-0.9,2.6
			c-1.1-0.1-2.1-0.1-3,0c-3.5,0.2-5.5,0.7-7,1.4c-0.1,0-0.1,0.1,0,0.1c2.1,0.6,3.6,1.8,4.6,3.6c0,0.1,0.1,0,0.1,0
			c0.7-1.6,2.6-2.1,4.3-2.1c3.3-0.1,6,0.1,9.4,0.7c3,0.5,6.3,1.1,10.2,1.2c6.1,0.2,8.3-2.3,9.1-3.7c1.1-2.2,0.6-5-1.3-7.6
			C71.5,2.7,64.6-1.1,54.9,1c-7.9,1.7-11.4,6.4-12.1,8.5C42.1,11.6,43.7,11.9,44.7,10.3z M48.8,12.9c-0.3-1-0.2-1.7,0.5-2.1
			c0.7-0.4,1.6-0.2,2,0.3c0.4,0.6,0.6,1.4,0.7,2.2C50.9,13.1,49.8,13,48.8,12.9z M54.6,13.7c-0.6-0.1-1.3-0.2-1.9-0.3
			c-0.1-0.9-0.4-1.9-0.9-2.6c0,0,0,0,0,0c0.5-0.9,1.3-1,1.7-1c0,0,0,0,0,0c0.8,0,1.5,0.4,1.7,1C55.5,11.4,55,12.7,54.6,13.7z
			 M55.3,13.8c0.4-1,0.9-2.5,0.5-3.5c0-0.1-0.1-0.1-0.1-0.2c0.4-0.4,1-0.5,1.5-0.4c0.6,0.2,1.1,0.7,1.2,1.3c0.1,0.6-0.4,1.8-1.4,3.1
			C56.5,14,55.9,13.9,55.3,13.8z M57.8,14.3c0.7-1,1.4-2.3,1.3-3.3c0.4-0.3,0.9-0.4,1.3-0.2c0.5,0.2,0.8,0.6,0.9,1.1
			c0.1,0.6-0.7,1.5-2,2.6C58.7,14.4,58.3,14.4,57.8,14.3z M60.1,14.6c1-0.9,1.9-2,1.8-2.8c0,0,0-0.1,0-0.1c0.7-0.2,1.3-0.1,1.7,0.4
			c0.3,0.4,0.3,1.1,0,1.5c-0.3,0.4-1,0.9-2,1.2C61,14.8,60.6,14.7,60.1,14.6z M66.2,14.5c-0.3,0.3-0.8,0.5-1.4,0.6
			c-0.6,0-1.3-0.1-2-0.1c0.5-0.3,1-0.6,1.2-1c0.2-0.3,0.3-0.7,0.4-1.1c0.9-0.1,1.7,0.3,1.9,0.8C66.5,13.9,66.4,14.2,66.2,14.5z
			 M70.3,13c-1-0.1-2.3-0.1-3.5,0c-0.5-0.6-1.5-0.9-2.5-0.8c-0.1-0.2-0.1-0.4-0.3-0.6c-0.1-0.1-0.2-0.3-0.3-0.4
			c1.3-0.4,2.9-0.7,4.4-0.8c1.5-0.1,3,0.5,3.9,1.5C73,13.2,72.1,13.1,70.3,13z M71.4,9.3c0,0,0.1,0.1-0.1,0.2
			c-0.3,0.1-1,0.2-2.3,0.2c-1.8,0.1-4.4,0.4-6.3,1.3c-0.3,0-0.7,0-1,0.1l0,0.1c-0.2-0.4-0.6-0.8-1.1-1c-0.1,0-0.1,0-0.2,0
			c0.8-0.5,2.2-1.3,3.7-1.9C64.5,8.1,64.8,8,65,7.9c1.2-0.4,2.1-0.5,2.8-0.5C69.2,7.4,70.8,7.8,71.4,9.3z M66.9,5.9
			c0,0.2-0.1,0.6-3,1.6c-2.6,0.9-4.7,2.5-4.8,2.6c0,0-0.1,0.1-0.1,0.1c-0.1,0-0.1,0.1-0.2,0.1c-0.3-0.6-0.8-1-1.5-1.2
			c0,0-0.1,0-0.1,0c0.8-0.6,1.7-1.2,2.4-1.8c0.5-0.4,1-0.8,1.3-0.9c0,0,0,0,0,0C63.8,4.2,66.9,5.5,66.9,5.9z M61.5,4.2
			c0.1,0.4-0.3,1-1,1.5c-0.2,0.2-0.7,0.6-1.3,1c-1.1,0.8-2.7,2.1-3.6,2.7c-0.1,0.1-0.3,0.2-0.4,0.3c-0.3-0.3-0.8-0.5-1.3-0.6
			c0,0,0,0,0,0c0.3-0.4,0.6-0.8,0.9-1.2c0.3-0.5,0.7-0.9,0.9-1.2c0.8-0.9,1.3-1.6,1.4-2.2C59,3.1,61.2,3.6,61.5,4.2z M55.8,3.8
			c0.3,0,0.5,0.2,0.5,0.3c0.1,0.3,0,0.7-1.1,2c-0.3,0.3-0.7,0.8-1,1.3C53.8,8,53.4,8.6,53,9.1c0,0,0,0,0,0c-0.7,0.1-1.4,0.5-1.8,1.2
			c-0.2-0.1-0.4-0.2-0.5-0.2c0.3-0.9,0.9-2.8,1-3.2c0.1-0.5,0.1-0.9-0.1-1.3C52,4.8,53.9,3.4,55.8,3.8z"/>
		<path class="st0" d="M75.7,26.1c-0.8-1.5-3-3.9-9.1-3.7c-3.9,0.1-7.3,0.7-10.2,1.2c-3.1,0.5-5.8,1-8.6,0.9c-2.3,0-4.4-1.5-5.9-4.7
			c-1.9-4.4-5.4-4.5-7.1-4.4c-1,0.1-2.1,0.2-3.3,1.2c0,0-0.1,0-0.2,0c-3.3-2.1-9.7-1.4-12-0.7c-0.1,0-0.2,0.2,0,0.3
			c2.5,0.8,9.1,2.4,12.6,5c3.2,2.4,4,5.6,13.1,6.2c0.9,0.1,2,0,3,0c-0.4,1.6,0.5,2.4,0.9,2.6c0.3,0.2,0.7,0.3,1,0.3
			c0.4,1,0.6,2,1,3.1c0.3,1.2-0.7,2-2.1,0.6c-0.7-0.7-2.1-2.5-1.8-5.8c0-0.3-0.5-0.7-0.5,0c-0.2,2,0.1,3.5,0.6,4.6
			c-1.3-1.2-2-2.3-2.4-3c-1-1.5-2.6-1.3-1.8,0.8c0.7,2.1,4.3,6.9,12.1,8.5c9.7,2.1,16.6-1.7,19.5-5.6C76.3,31.1,76.8,28.3,75.7,26.1
			z M55.2,29.5c-0.3,0.6-1,1-1.7,1c0,0,0,0,0,0c-0.4,0-1.2-0.1-1.7-1c0,0,0,0,0,0c0.5-0.7,0.7-1.7,0.9-2.6c0.7-0.1,1.3-0.2,2-0.3
			C55,27.4,55.5,28.7,55.2,29.5z M55.2,30.5c0.1,0.1,0.2,0.2,0.4,0.3c0.9,0.6,2.5,1.8,3.6,2.7c0.6,0.5,1.1,0.8,1.3,1
			c0.7,0.5,1.1,1.1,1,1.5c-0.2,0.6-2.4,1.1-4.4-0.3c-0.1-0.6-0.6-1.3-1.4-2.2c-0.2-0.2-0.5-0.7-0.9-1.2c-0.3-0.4-0.6-0.8-0.9-1.2h0
			C54.4,31,54.9,30.8,55.2,30.5z M62.7,29.2c1.9,0.9,4.6,1.2,6.3,1.3c1.4,0,2,0.1,2.3,0.2c0.1,0.1,0.1,0.2,0.1,0.2
			c-0.6,1.5-2.2,1.9-3.5,1.9c-0.8,0-1.7-0.1-2.8-0.5c-0.3-0.1-0.6-0.2-0.9-0.3c-1.5-0.5-2.9-1.3-3.7-1.9c0.1,0,0.1,0,0.2,0
			c0.5-0.2,0.9-0.5,1.1-1l0,0.1C62,29.2,62.4,29.2,62.7,29.2z M68.1,29.6c-1.5-0.1-3.1-0.4-4.4-0.8c0.1-0.1,0.2-0.2,0.3-0.4
			c0.1-0.2,0.2-0.4,0.3-0.6c1,0.1,2-0.2,2.5-0.8c1.2,0.2,2.5,0.1,3.5,0c1.8-0.1,2.7-0.2,1.7,1C71.1,29.1,69.6,29.7,68.1,29.6z
			 M66.2,25.7c0.2,0.2,0.2,0.6,0.1,0.8c-0.2,0.5-1,0.9-1.9,0.8c0-0.4-0.1-0.7-0.4-1.1c-0.3-0.4-0.7-0.7-1.2-0.9
			c0.7-0.1,1.4-0.1,2.1-0.1C65.5,25.2,65.9,25.4,66.2,25.7z M63.5,26.5c0.3,0.5,0.3,1.1,0,1.5c-0.3,0.5-0.9,0.6-1.7,0.4
			c0,0,0-0.1,0-0.1c0.1-0.9-0.8-1.9-1.8-2.8c0.5-0.1,1-0.1,1.4-0.2C62.5,25.7,63.2,26.1,63.5,26.5z M61.2,28.3
			c0,0.5-0.4,0.9-0.9,1.1c-0.5,0.2-0.9,0.1-1.3-0.2c0.1-1-0.6-2.3-1.3-3.2c0.5-0.1,1-0.2,1.5-0.2C60.6,26.8,61.3,27.7,61.2,28.3z
			 M58.8,29.8c0.1,0,0.1,0.1,0.2,0.1c0,0,0.1,0.1,0.1,0.1c0.1,0.1,2.2,1.6,4.8,2.6c3,1.1,3.1,1.5,3,1.6c0,0.4-3.1,1.7-6.1-0.5
			c0,0,0,0,0,0c-0.3-0.2-0.7-0.5-1.3-0.9c-0.7-0.5-1.6-1.2-2.4-1.8c0,0,0.1,0,0.1,0C58,30.8,58.6,30.3,58.8,29.8z M56.8,26.1
			c0.1,0,0.2,0,0.3,0c0.9,1.3,1.4,2.4,1.3,3.1c-0.1,0.6-0.5,1.1-1.2,1.3c-0.6,0.2-1.1,0-1.5-0.4c0-0.1,0.1-0.1,0.1-0.2
			c0.4-1,0-2.4-0.5-3.4C55.8,26.2,56.3,26.1,56.8,26.1z M49.2,29.3c-0.6-0.4-0.8-1.1-0.5-2c1.1-0.1,2.2-0.2,3.2-0.4
			c-0.1,0.7-0.4,1.5-0.7,2.1C50.8,29.6,49.9,29.7,49.2,29.3z M50.7,30.1c0.2-0.1,0.4-0.1,0.5-0.2c0.4,0.6,1,1.1,1.7,1.2h0
			c0.4,0.5,0.8,1.1,1.2,1.6c0.4,0.5,0.8,1,1,1.3c1.2,1.3,1.2,1.7,1.1,2c0,0.1-0.2,0.3-0.5,0.3c-1.9,0.3-3.9-1.1-4.2-1.7
			c0.1-0.3,0.1-0.8,0.1-1.3C51.6,32.9,51,31,50.7,30.1z"/>
		<g>
			<g>
				<circle class="st1" cx="36.1" cy="18.9" r="1.5"/>
				<circle class="st2" cx="36.1" cy="18.9" r="0.8"/>
			</g>
		</g>
	</g>
	<g>
		<g>
			<g>
				<path class="st0" d="M47.5,53.1c0,0.1-0.1,0.3-0.2,0.3c-0.1,0-0.1,0-0.2,0c0,0-0.1,0-0.1,0c-0.1,0-0.2,0-0.3,0c0,0,0,0,0,0
					c-0.4,0-0.8,0-1.1,0.1c0,0.2,0.1,0.5,0.2,0.8c0.1,0.2,0.1,0.5,0.2,0.6c0,0.1,0,0.2,0,0.3c0,0.1-0.1,0.3-0.2,0.3c0,0-0.1,0-0.1,0
					c-0.2,0-0.3-0.2-0.3-0.3c0-0.1,0-0.1,0-0.1c0-0.2-0.1-0.4-0.1-0.7c0-0.3-0.1-0.6-0.1-0.8c-0.2,0-0.4,0.1-0.7,0.1
					c-0.2,0.1-0.5,0.1-0.7,0.2c-0.2,0.1-0.4,0.1-0.5,0.2c0,0-0.1,0-0.1,0c-0.1,0-0.1,0-0.2-0.1c-0.1,0-0.1-0.1-0.1-0.2
					c0-0.2,0.1-0.5,0.3-0.5c0,0,0,0,0.1,0c0,0,0.1,0,0.1,0c0,0,0.1,0,0.1,0c0,0,0.1,0,0.1,0c0.1,0,0.2,0,0.2,0
					c0.2,0,0.4-0.1,0.6-0.1l0.7-0.1l-0.2-0.7c-0.3,0.1-0.6,0.1-0.8,0.1c-0.1,0-0.2,0-0.2,0.1c-0.1,0-0.2,0.1-0.2,0.1
					c-0.1,0-0.1,0-0.1,0c0,0-0.1,0-0.1,0c-0.1-0.1-0.1-0.1-0.1-0.2c0,0,0-0.1,0-0.1c0-0.1,0.2-0.3,0.2-0.3c0,0,0.1,0,0.1,0
					c0,0,0.1,0,0.1,0c0,0,0.1,0,0.1,0c0,0,0,0,0.1,0c0.2,0,0.7-0.1,0.9-0.1c0-0.1-0.1-0.5-0.2-0.6c0-0.1-0.1-0.2-0.1-0.3v0
					c0-0.1,0.1-0.2,0.2-0.2c0.1,0,0.1,0,0.2,0c0.1,0,0.1,0,0.1,0c0.1,0,0.2,0.2,0.2,0.2v0c0,0,0,0.1,0,0.1c0,0,0,0.1,0,0.1
					c0,0,0,0,0,0.1c0,0.1,0,0.3,0.1,0.5c0.3,0,0.5-0.1,0.9-0.1c0.1,0,0.4-0.1,0.4-0.1c0.1,0,0.2-0.1,0.2-0.1c0,0,0.1,0,0.1,0
					c0.1,0,0.1,0.1,0.1,0.1c0,0.1,0,0.1,0,0.2c0,0.1-0.1,0.2-0.2,0.3c-0.1,0-0.2,0-0.3,0c-0.1,0-0.2,0-0.3,0c-0.3,0-0.6,0-0.8,0.1
					c0.1,0.2,0.1,0.6,0.2,0.8c0.3,0,0.8-0.1,1.2-0.2c0.2,0,0.4-0.1,0.5-0.1c0.1,0,0.2-0.1,0.3-0.1c0.1,0,0.1,0,0.2,0c0,0,0,0,0.1,0
					c0,0,0.1,0.1,0.1,0.1C47.5,52.9,47.5,53,47.5,53.1z"/>
				<path class="st0" d="M57.3,53.6c-0.1,0.1-0.2,0.2-0.3,0.2c-0.1,0-0.1,0-0.2-0.1c-0.1,0-0.2-0.1-0.3-0.2
					c-0.2-0.1-0.3-0.2-0.4-0.3c-0.1-0.1-0.3-0.2-0.5-0.3c-0.1-0.1-0.2-0.1-0.3-0.2c0,0.1,0,0.2,0,0.3c0,0.2,0,0.5,0,0.7
					c0,0.3,0,0.5,0,0.8c0,0.1,0,0.1,0,0.2c0,0,0,0.1,0,0.1c0,0.1,0,0.2,0,0.2c0,0.1-0.1,0.2-0.3,0.2c0,0,0,0,0,0
					c-0.1,0-0.2,0-0.3-0.1c0,0,0-0.1,0-0.2c0-0.1,0-0.2,0-0.2c0-0.3,0-0.6,0-1c0-0.4,0-0.8,0-1v0c0-0.5,0-1,0-1.2
					c0-0.1,0-0.1-0.1-0.2c0-0.1,0-0.1,0-0.2c0,0,0,0,0,0c0-0.1,0.2-0.2,0.4-0.2c0,0,0,0,0,0c0.2,0,0.3,0.1,0.3,0.2
					c0,0.1-0.1,0.3-0.1,0.4c0,0.2,0,0.3,0,0.4c0,0.1,0,0.2,0,0.3c0,0,0,0.1,0,0.1c0.2,0.1,0.5,0.2,0.7,0.3c0.3,0.1,0.5,0.2,0.8,0.3
					C57,53,57,53,57.1,53c0.1,0,0.1,0,0.2,0c0.1,0,0.1,0,0.1,0c0,0,0,0,0,0C57.5,53.3,57.4,53.5,57.3,53.6z M57.2,52.2
					c0,0.1-0.1,0.1-0.2,0.1h0c0,0-0.1-0.1-0.1-0.1c-0.1-0.1-0.2-0.2-0.2-0.3c-0.1-0.1-0.1-0.2-0.2-0.2c0,0-0.1-0.1-0.1-0.1
					c0,0,0-0.1,0.1-0.1c0,0,0.1,0,0.1,0c0,0,0.1,0,0.1,0c0.1,0.1,0.2,0.1,0.3,0.2c0.1,0.1,0.2,0.2,0.3,0.4c0,0,0,0,0,0
					C57.3,52.2,57.3,52.2,57.2,52.2z M57.8,51.8c0,0.1-0.1,0.1-0.2,0.1h0c0,0-0.1-0.1-0.1-0.1c-0.1-0.1-0.2-0.2-0.2-0.3
					c-0.1-0.1-0.1-0.2-0.2-0.2c0,0-0.1-0.1-0.1-0.1c0,0,0-0.1,0.1-0.1c0,0,0.1,0,0.1,0c0,0,0.1,0,0.1,0c0.1,0.1,0.2,0.1,0.3,0.2
					c0.1,0.1,0.2,0.2,0.3,0.3c0,0,0,0,0,0C57.9,51.7,57.9,51.8,57.8,51.8z"/>
				<path class="st0" d="M65.2,51.4c0,0.1,0,0.1,0,0.2l0,0.6l0,0.9c0,0,0,0,0,0c0,0.2-0.1,0.4-0.3,0.4c-0.3,0-0.3-0.2-0.3-0.3
					c0,0,0,0,0,0l0-0.9c0,0,0,0,0,0c0-0.1,0-0.5-0.1-0.6c0,0-0.1-0.1-0.1-0.2c0,0,0,0,0,0c0-0.1,0.2-0.2,0.3-0.2c0,0,0.1,0,0.1,0
					c0.1,0,0.2,0,0.2,0.1C65.2,51.3,65.2,51.3,65.2,51.4C65.2,51.4,65.2,51.4,65.2,51.4z M67.2,51.4c0,0.2,0,0.4,0,0.6
					c0,0,0,0.1,0,0.1c0,0.3,0,0.5,0,0.8c0,0,0,0.1,0,0.1c0,0.5-0.1,1-0.4,1.4c-0.2,0.3-0.5,0.5-0.8,0.7c-0.1,0.1-0.2,0.1-0.3,0.1
					c0,0,0,0,0,0c-0.1,0-0.3-0.1-0.4-0.2c-0.1-0.1-0.2-0.2-0.2-0.2v0c0-0.1,0.1-0.1,0.1-0.1c0.1,0,0.2-0.1,0.2-0.1
					c0.2-0.1,0.5-0.2,0.7-0.3c0.2-0.2,0.3-0.3,0.5-0.6c0.1-0.3,0.1-0.6,0.1-0.9c0-0.1,0-0.1,0-0.2c0-0.4,0-0.7,0-1.1
					c0-0.1-0.1-0.2-0.1-0.3c0,0,0,0,0,0c0-0.1,0.2-0.2,0.3-0.2c0,0,0.1,0,0.1,0c0.1,0,0.2,0,0.3,0.1c0,0,0,0.1,0,0.1
					C67.2,51.3,67.2,51.3,67.2,51.4z"/>
			</g>
		</g>
		<g>
			<g>
				<path class="st0" d="M2.5,63.1c0-2.5,0-2.8-1.4-2.9l-0.6,0c-0.1-0.1-0.1-0.5,0-0.6c1.1,0,1.9,0.1,2.9,0.1c0.9,0,1.7,0,2.7-0.1
					c0.1,0.1,0.2,0.5,0,0.6l-0.4,0c-1.4,0.1-1.4,0.5-1.4,2.9v2.7c0,0.4,0,0.9,0.3,0.9c0.2,0,0.5-0.1,0.7-0.3
					c0.3-0.3,0.9-0.9,1.2-1.1l2.5-2.5c0.4-0.4,1.6-1.6,1.8-1.9c0.1-0.2,0.2-0.3,0.2-0.4c0-0.1-0.1-0.2-0.4-0.2L10,60.1
					c-0.2-0.2-0.1-0.5,0-0.6c0.8,0,1.8,0.1,2.6,0.1c0.8,0,1.6,0,2.3-0.1c0.2,0.1,0.2,0.4,0,0.6c-0.6,0-1.5,0.3-2.2,0.7
					c-0.7,0.4-2,1.5-3.3,2.7l-2.1,2c-0.3,0.3-0.5,0.5-0.5,0.7c0,0.2,0.1,0.4,0.4,0.7c2.2,2.5,4,4.7,5.8,6.6c0.6,0.6,1.1,0.9,1.9,1
					l0.6,0.1c0.2,0.1,0.1,0.5,0,0.6c-0.6,0-1.5-0.1-2.6-0.1c-1,0-1.8,0-2.9,0.1c-0.2,0-0.2-0.4-0.1-0.6l0.5-0.1
					c0.3,0,0.6-0.1,0.6-0.2c0-0.1-0.2-0.3-0.3-0.5c-0.4-0.6-1.1-1.2-1.9-2.2l-1.9-2.1c-1.3-1.5-1.7-2-2.3-2c-0.4,0-0.4,0.3-0.4,1.1
					v3c0,2.5,0,2.8,1.4,2.9l0.6,0.1c0.1,0.1,0.1,0.5,0,0.6c-1.1,0-1.9-0.1-2.9-0.1c-1,0-1.8,0-2.7,0.1c-0.1-0.1-0.2-0.4,0-0.6
					l0.5-0.1c1.2-0.2,1.3-0.5,1.3-2.9V63.1z"/>
				<path class="st0" d="M23.9,63.2c0-2.5,0-2.9-1.4-3l-0.6,0c-0.1-0.1-0.1-0.5,0-0.6c1.2,0,2,0.1,2.9,0.1c0.9,0,1.7,0,2.9-0.1
					c0.1,0.1,0.2,0.5,0,0.6l-0.6,0c-1.4,0.1-1.4,0.5-1.4,3v8.3c0,2.5,0,2.8,1.4,3l0.6,0.1c0.1,0.1,0.1,0.5,0,0.6
					c-1.2,0-2-0.1-2.9-0.1c-1,0-1.8,0-2.9,0.1c-0.1-0.1-0.2-0.4,0-0.6l0.6-0.1c1.4-0.2,1.4-0.5,1.4-3V63.2z"/>
				<path class="st0" d="M37.9,62.7c0-1.6-0.1-2.1-1.1-2.3l-0.5-0.1c-0.2-0.1-0.2-0.5,0-0.6c2-0.1,3.9-0.2,5.9-0.2
					c2,0,3.6,0.1,5.1,0.7c3.2,1.1,4.7,3.8,4.7,6.9c0,3-1.4,5.5-4.1,7c-1.5,0.8-3.4,1.1-5.2,1.1c-1.5,0-3-0.2-3.8-0.2
					c-1,0-1.8,0-2.9,0.1c-0.1-0.1-0.2-0.4,0-0.6l0.5-0.1c1.4-0.2,1.4-0.5,1.4-2.9V62.7z M39.8,71c0,1.2,0.1,2,0.5,2.5
					c0.5,0.7,1.4,1,2.9,1c4.5,0,6.6-3,6.6-7.3c0-2.6-1.2-6.9-7.4-6.9c-1.4,0-2.1,0.2-2.3,0.3s-0.2,0.7-0.2,1.8V71z"/>
				<path class="st0" d="M58,67.5c0-4.7,3.5-8.3,8.3-8.3c5.4,0,8.1,3.9,8.1,8c0,4.7-3.6,8.2-8.1,8.2C61.2,75.4,58,71.7,58,67.5z
					 M72.1,68c0-3.9-1.7-8-6.2-8c-2.4,0-5.6,1.7-5.6,6.8c0,3.5,1.7,8,6.3,8C69.5,74.7,72.1,72.6,72.1,68z"/>
				<path class="st0" d="M82.3,63.2c0-2.2-0.1-2.6-1-2.7l-0.7-0.1c-0.2-0.1-0.2-0.5,0-0.6c1.3-0.1,2.9-0.2,5.2-0.2
					c1.5,0,2.8,0.1,3.9,0.7c1.1,0.6,1.9,1.6,1.9,3.3c0,2.2-1.8,3.4-2.9,3.9c-0.1,0.1,0,0.4,0.1,0.6c1.9,3,3.1,4.9,4.7,6.2
					c0.4,0.4,1,0.6,1.6,0.7c0.1,0,0.1,0.2,0,0.3c-0.2,0.1-0.6,0.1-1,0.1c-2,0-3.2-0.6-4.8-2.9c-0.6-0.9-1.6-2.5-2.3-3.5
					c-0.4-0.5-0.7-0.7-1.7-0.7c-1.1,0-1.1,0-1.1,0.5v2.9c0,2.5,0,2.7,1.4,2.9l0.5,0.1c0.1,0.1,0.1,0.5,0,0.6c-1.1,0-1.8-0.1-2.8-0.1
					c-1,0-1.8,0-2.9,0.1c-0.1-0.1-0.2-0.4,0-0.6l0.6-0.1c1.4-0.2,1.4-0.5,1.4-2.9V63.2z M84.2,66.5c0,0.4,0,0.7,0.1,0.8
					c0.1,0.1,0.4,0.1,1.6,0.1c0.8,0,1.7-0.1,2.4-0.6c0.6-0.5,1.2-1.3,1.2-2.9c0-1.8-1.1-3.6-3.7-3.6c-1.5,0-1.5,0.1-1.5,0.7V66.5z"
					/>
				<path class="st0" d="M101.6,63.2c0-2.5,0-2.9-1.4-3l-0.6,0c-0.1-0.1-0.1-0.5,0-0.6c1.2,0,2,0.1,2.9,0.1c0.9,0,1.7,0,2.9-0.1
					c0.1,0.1,0.2,0.5,0,0.6l-0.6,0c-1.4,0.1-1.4,0.5-1.4,3v8.3c0,2.5,0,2.8,1.4,3l0.6,0.1c0.1,0.1,0.1,0.5,0,0.6
					c-1.2,0-2-0.1-2.9-0.1c-1,0-1.8,0-2.9,0.1c-0.1-0.1-0.2-0.4,0-0.6l0.6-0.1c1.4-0.2,1.4-0.5,1.4-3V63.2z"/>
			</g>
		</g>
		<g>
			<g>
				<path class="st0" d="M12.5,83.1v1.2c0,0.3,0,0.4,0.1,0.5c0.1,0.1,0.2,0.1,0.4,0.1h0.2V85h-1.8v-0.1h0.2c0.2,0,0.3-0.1,0.4-0.2
					c0-0.1,0.1-0.2,0.1-0.5v-2.7c0-0.3,0-0.4-0.1-0.5C11.7,81,11.6,81,11.4,81h-0.2v-0.1h1.5c0.4,0,0.7,0,0.9,0.1
					c0.1,0,0.2,0.1,0.3,0.2c0.1,0.1,0.2,0.1,0.2,0.2c0.1,0.1,0.1,0.2,0.2,0.3c0,0.1,0.1,0.2,0.1,0.4c0,0.2,0,0.3-0.1,0.5
					c-0.1,0.1-0.1,0.3-0.3,0.4c-0.1,0.1-0.2,0.2-0.4,0.2c-0.2,0.1-0.3,0.1-0.5,0.1C13,83.2,12.7,83.1,12.5,83.1z M12.5,82.9
					c0.1,0,0.2,0,0.3,0c0.1,0,0.2,0,0.2,0c0.1,0,0.2,0,0.3-0.1c0.1,0,0.2-0.1,0.3-0.2s0.1-0.2,0.2-0.3c0-0.1,0.1-0.2,0.1-0.4
					c0-0.2,0-0.3-0.1-0.4c0-0.1-0.1-0.2-0.2-0.3c-0.1-0.1-0.2-0.1-0.3-0.2c-0.1,0-0.2-0.1-0.4-0.1c-0.1,0-0.2,0-0.4,0.1V82.9z"/>
				<path class="st0" d="M19.2,83.9l0.1,0L18.9,85h-3.2v-0.1h0.2c0.2,0,0.3-0.1,0.4-0.2c0-0.1,0.1-0.2,0.1-0.5v-2.7
					c0-0.3,0-0.4-0.1-0.5C16.1,81,16,81,15.8,81h-0.2v-0.1h1.9V81c-0.1,0-0.2,0-0.3,0c-0.1,0-0.1,0-0.2,0c0,0-0.1,0-0.1,0.1
					c0,0-0.1,0.1-0.1,0.1c0,0.1,0,0.2,0,0.5v2.6c0,0.1,0,0.2,0,0.3c0,0.1,0.1,0.1,0.1,0.1c0.1,0,0.2,0,0.5,0h0.3
					c0.3,0,0.5,0,0.7-0.1c0.1,0,0.1-0.1,0.2-0.1s0.1-0.1,0.2-0.2c0.1-0.1,0.1-0.1,0.2-0.2C19.1,84.1,19.1,84,19.2,83.9z"/>
				<path class="st0" d="M23.1,83.6h-1.6l-0.3,0.7c-0.1,0.2-0.1,0.3-0.1,0.4c0,0,0,0.1,0,0.1c0,0,0,0.1,0.1,0.1c0,0,0.1,0,0.1,0.1
					c0.1,0,0.1,0,0.3,0V85h-1.3v-0.1c0.1,0,0.2,0,0.3-0.1c0.1,0,0.1-0.1,0.2-0.1c0-0.1,0.1-0.1,0.1-0.2c0-0.1,0.1-0.2,0.1-0.3
					l1.5-3.4h0.1l1.5,3.5c0.1,0.1,0.1,0.3,0.2,0.3c0.1,0.1,0.1,0.2,0.2,0.2c0.1,0,0.1,0.1,0.2,0.1c0.1,0,0.1,0,0.2,0V85h-1.7v-0.1
					c0.2,0,0.3,0,0.3-0.1c0.1,0,0.1-0.1,0.1-0.2c0-0.1,0-0.2-0.1-0.4L23.1,83.6z M23.1,83.4l-0.7-1.7l-0.7,1.7H23.1z"/>
				<path class="st0" d="M25.6,80.8h1.1l2.6,3.1v-2.4c0-0.1,0-0.3,0-0.3c0-0.1,0-0.1-0.1-0.2c0,0-0.1-0.1-0.1-0.1
					c-0.1,0-0.1,0-0.2,0h-0.1v-0.1h1.5V81H30c-0.1,0-0.1,0-0.2,0c-0.1,0-0.1,0-0.1,0.1s-0.1,0.1-0.1,0.2c0,0.1,0,0.2,0,0.3v3.5h-0.1
					l-2.8-3.4v2.6c0,0.1,0,0.3,0,0.3c0,0.1,0,0.1,0.1,0.2c0,0,0.1,0.1,0.1,0.1c0.1,0,0.1,0,0.2,0h0.1V85h-1.5v-0.1H26
					c0.1,0,0.1,0,0.2,0c0.1,0,0.1,0,0.1-0.1c0,0,0.1-0.1,0.1-0.2c0-0.1,0-0.2,0-0.3v-2.9c-0.1-0.1-0.1-0.1-0.2-0.2
					c0,0-0.1-0.1-0.1-0.1c0,0-0.1-0.1-0.1-0.1c0,0-0.1,0-0.2-0.1c-0.1,0-0.2,0-0.3,0V80.8z"/>
				<path class="st0" d="M34.7,80.8v1h-0.1c0-0.3-0.1-0.5-0.2-0.6c-0.1-0.1-0.3-0.2-0.5-0.2h-0.6v3.2c0,0.1,0,0.3,0,0.3
					c0,0.1,0,0.1,0.1,0.2c0,0,0.1,0.1,0.1,0.1c0.1,0,0.1,0,0.2,0h0.1V85h-1.8v-0.1h0.1c0.1,0,0.1,0,0.2,0c0.1,0,0.1,0,0.1-0.1
					c0,0,0.1-0.1,0.1-0.2c0-0.1,0-0.2,0-0.3v-3.2h-0.5c-0.1,0-0.2,0-0.3,0c-0.1,0-0.2,0.1-0.3,0.1c-0.1,0.1-0.1,0.1-0.2,0.2
					c0,0.1-0.1,0.2-0.1,0.4h-0.1v-1H34.7z"/>
				<path class="st0" d="M38.7,80.7v1.4h-0.1c-0.1-0.4-0.2-0.7-0.4-0.9C38,81.1,37.7,81,37.4,81c-0.1,0-0.2,0-0.3,0.1
					c-0.1,0-0.2,0.1-0.2,0.1c-0.1,0.1-0.1,0.1-0.2,0.2c0,0.1-0.1,0.2-0.1,0.2c0,0.1,0,0.1,0,0.2c0,0.1,0.1,0.2,0.3,0.3
					c0.3,0.2,0.5,0.3,0.7,0.4c0.2,0.1,0.5,0.3,0.8,0.5c0.1,0.1,0.3,0.2,0.3,0.4c0.1,0.2,0.1,0.3,0.1,0.5c0,0.2,0,0.3-0.1,0.4
					c-0.1,0.1-0.2,0.3-0.3,0.4c-0.1,0.1-0.3,0.2-0.4,0.3c-0.2,0.1-0.3,0.1-0.5,0.1c-0.1,0-0.2,0-0.3,0c0,0-0.1,0-0.1,0
					c-0.1,0-0.2,0-0.3-0.1c-0.1,0-0.2,0-0.2-0.1c-0.1,0-0.1,0-0.1,0c-0.1,0-0.1,0-0.1,0c0,0-0.1,0.1-0.1,0.2h-0.1v-1.4h0.1
					c0.1,0.3,0.1,0.5,0.2,0.7c0,0.1,0.1,0.1,0.2,0.2c0.1,0.1,0.2,0.1,0.2,0.2c0.1,0,0.2,0.1,0.3,0.1c0.1,0,0.2,0,0.3,0
					c0.1,0,0.2,0,0.3-0.1c0.1,0,0.2-0.1,0.3-0.1c0.1-0.1,0.1-0.1,0.2-0.2c0-0.1,0.1-0.2,0.1-0.3c0-0.1,0-0.2-0.1-0.3
					c-0.1-0.1-0.2-0.2-0.3-0.3c-0.1-0.1-0.3-0.2-0.5-0.3c-0.3-0.2-0.7-0.4-0.9-0.6c-0.2-0.1-0.3-0.3-0.3-0.4
					c-0.1-0.1-0.1-0.3-0.1-0.5c0-0.1,0-0.3,0.1-0.4c0.1-0.1,0.1-0.3,0.3-0.4c0.1-0.1,0.2-0.2,0.4-0.2c0.2-0.1,0.3-0.1,0.5-0.1
					c0.2,0,0.5,0.1,0.7,0.2c0.1,0,0.1,0,0.1,0.1c0,0,0.1,0,0.1,0c0.1,0,0.1,0,0.1,0c0,0,0.1-0.1,0.1-0.2H38.7z"/>
				<path class="st0" d="M43.9,81.1v1.6h0.8c0.1,0,0.2,0,0.2,0c0.1,0,0.1,0,0.2-0.1c0,0,0.1-0.1,0.1-0.2c0-0.1,0-0.2,0.1-0.3h0.1
					v1.4h-0.1c0-0.1,0-0.2,0-0.3c0-0.1,0-0.1-0.1-0.2c0,0-0.1-0.1-0.2-0.1c-0.1,0-0.2,0-0.3,0h-0.8v1.3c0,0.1,0,0.2,0,0.2
					c0,0.1,0,0.1,0,0.2c0,0,0,0.1,0.1,0.1c0,0,0.1,0,0.1,0.1c0.1,0,0.2,0.1,0.3,0.1h0.2V85h-1.8v-0.1h0.1c0.1,0,0.1,0,0.2,0
					c0.1,0,0.1,0,0.1-0.1c0,0,0.1-0.1,0.1-0.2c0-0.1,0-0.2,0-0.3v-2.7c0-0.1,0-0.2,0-0.2c0-0.1,0-0.1,0-0.2c0,0,0-0.1,0-0.1
					c0,0-0.1,0-0.1-0.1c0,0-0.1,0-0.1-0.1c0,0-0.1,0-0.1,0h-0.1v-0.1h3.1v0.9h-0.1c0-0.1-0.1-0.3-0.1-0.4c-0.1-0.1-0.1-0.2-0.2-0.2
					c-0.1,0-0.2-0.1-0.3-0.1c-0.1,0-0.2,0-0.4,0H43.9z"/>
				<path class="st0" d="M49.3,80.7c0.3,0,0.5,0.1,0.8,0.2c0.2,0.1,0.5,0.3,0.6,0.5c0.2,0.2,0.3,0.4,0.4,0.7
					c0.1,0.3,0.2,0.5,0.2,0.9c0,0.3-0.1,0.6-0.2,0.9c-0.1,0.3-0.3,0.5-0.4,0.7c-0.2,0.2-0.4,0.4-0.7,0.5c-0.3,0.1-0.5,0.2-0.8,0.2
					c-0.3,0-0.6-0.1-0.8-0.2c-0.2-0.1-0.5-0.3-0.6-0.5c-0.2-0.2-0.3-0.4-0.4-0.7c-0.1-0.3-0.2-0.6-0.2-0.9c0-0.3,0.1-0.6,0.2-0.8
					c0.1-0.3,0.3-0.5,0.4-0.7s0.4-0.3,0.7-0.5C48.7,80.8,49,80.7,49.3,80.7z M49.2,81c-0.2,0-0.4,0-0.6,0.1
					c-0.2,0.1-0.3,0.2-0.4,0.4c-0.1,0.2-0.2,0.4-0.3,0.6c-0.1,0.2-0.1,0.5-0.1,0.8c0,0.3,0,0.6,0.1,0.8c0.1,0.2,0.1,0.5,0.3,0.6
					c0.1,0.2,0.3,0.3,0.4,0.4c0.2,0.1,0.4,0.1,0.6,0.1c0.2,0,0.4,0,0.5-0.1s0.3-0.2,0.4-0.3c0.1-0.2,0.2-0.4,0.3-0.6
					c0.1-0.2,0.1-0.5,0.1-0.9c0-0.3,0-0.6-0.1-0.9c-0.1-0.3-0.1-0.5-0.3-0.6c-0.1-0.2-0.3-0.3-0.4-0.4C49.6,81,49.4,81,49.2,81z"/>
				<path class="st0" d="M56.7,85h-1.1l-1.4-2c-0.1,0-0.1,0-0.1,0c0,0-0.1,0-0.1,0c0,0-0.1,0-0.1,0c0,0-0.1,0-0.1,0v1.2
					c0,0.1,0,0.3,0,0.3c0,0.1,0,0.1,0.1,0.2c0,0,0.1,0.1,0.1,0.1c0.1,0,0.1,0,0.2,0h0.2V85h-1.8v-0.1h0.2c0.2,0,0.3-0.1,0.4-0.2
					c0-0.1,0.1-0.2,0.1-0.5v-2.7c0-0.3,0-0.4-0.1-0.5C52.9,81,52.8,81,52.6,81h-0.2v-0.1H54c0.2,0,0.4,0,0.6,0c0.2,0,0.3,0,0.4,0.1
					c0.1,0,0.2,0.1,0.3,0.1c0.1,0.1,0.2,0.1,0.2,0.2c0.1,0.1,0.1,0.2,0.2,0.3c0,0.1,0.1,0.2,0.1,0.3c0,0.3-0.1,0.5-0.2,0.7
					c-0.2,0.2-0.4,0.3-0.8,0.4l0.9,1.2c0.1,0.1,0.2,0.3,0.3,0.3c0.1,0.1,0.2,0.2,0.2,0.2c0.1,0.1,0.2,0.1,0.2,0.1
					c0.1,0,0.2,0,0.3,0.1V85z M53.7,82.9c0,0,0.1,0,0.1,0c0,0,0.1,0,0.1,0c0.2,0,0.4,0,0.5-0.1c0.2,0,0.3-0.1,0.4-0.2
					c0.1-0.1,0.2-0.2,0.2-0.3c0.1-0.1,0.1-0.2,0.1-0.4c0-0.1,0-0.2-0.1-0.4c0-0.1-0.1-0.2-0.2-0.3c-0.1-0.1-0.2-0.1-0.3-0.2
					c-0.1,0-0.2-0.1-0.4-0.1c-0.1,0-0.3,0-0.5,0.1V82.9z"/>
				<path class="st0" d="M63.4,80.8v1h-0.1c0-0.3-0.1-0.5-0.2-0.6c-0.1-0.1-0.3-0.2-0.5-0.2H62v3.2c0,0.1,0,0.3,0,0.3
					c0,0.1,0,0.1,0.1,0.2c0,0,0.1,0.1,0.1,0.1c0.1,0,0.1,0,0.2,0h0.1V85h-1.8v-0.1H61c0.1,0,0.1,0,0.2,0c0.1,0,0.1,0,0.1-0.1
					c0,0,0.1-0.1,0.1-0.2c0-0.1,0-0.2,0-0.3v-3.2h-0.5c-0.1,0-0.2,0-0.3,0c-0.1,0-0.2,0.1-0.3,0.1c-0.1,0.1-0.1,0.1-0.2,0.2
					c0,0.1-0.1,0.2-0.1,0.4H60v-1H63.4z"/>
				<path class="st0" d="M65.8,82.8h1.9v-1.2c0-0.1,0-0.2,0-0.2c0-0.1,0-0.1,0-0.2c0,0,0-0.1-0.1-0.1c0,0-0.1,0-0.1-0.1
					c-0.1,0-0.2-0.1-0.3-0.1h-0.1v-0.1h1.8V81h-0.1c0,0-0.1,0-0.1,0c0,0-0.1,0-0.1,0c0,0-0.1,0-0.1,0.1c0,0-0.1,0.1-0.1,0.1
					c0,0.1,0,0.2,0,0.4v2.7c0,0.1,0,0.2,0,0.2c0,0.1,0,0.1,0,0.2c0,0,0,0.1,0,0.1c0,0,0.1,0,0.1,0.1c0.1,0,0.2,0.1,0.3,0.1h0.1V85
					h-1.8v-0.1h0.1c0.1,0,0.1,0,0.2,0c0.1,0,0.1,0,0.1-0.1c0,0,0.1-0.1,0.1-0.2c0-0.1,0-0.2,0-0.3V83h-1.9v1.3c0,0.1,0,0.2,0,0.2
					s0,0.1,0,0.2c0,0,0,0.1,0.1,0.1c0,0,0.1,0,0.1,0.1c0.1,0,0.2,0.1,0.3,0.1h0.2V85h-1.8v-0.1h0.2c0.2,0,0.3-0.1,0.4-0.2
					c0-0.1,0.1-0.2,0.1-0.5v-2.7c0-0.1,0-0.2,0-0.2c0-0.1,0-0.1,0-0.2c0,0,0-0.1-0.1-0.1c0,0-0.1,0-0.1-0.1c-0.1,0-0.2-0.1-0.3-0.1
					h-0.2v-0.1h1.8V81h-0.2c0,0-0.1,0-0.1,0c0,0-0.1,0-0.1,0c0,0-0.1,0-0.1,0.1c0,0-0.1,0.1-0.1,0.1c0,0.1,0,0.2,0,0.4V82.8z"/>
				<path class="st0" d="M72.2,80.7c0.3,0,0.5,0.1,0.8,0.2c0.2,0.1,0.5,0.3,0.6,0.5c0.2,0.2,0.3,0.4,0.4,0.7
					c0.1,0.3,0.2,0.5,0.2,0.9c0,0.3-0.1,0.6-0.2,0.9c-0.1,0.3-0.3,0.5-0.4,0.7c-0.2,0.2-0.4,0.4-0.7,0.5c-0.3,0.1-0.5,0.2-0.8,0.2
					c-0.3,0-0.6-0.1-0.8-0.2c-0.2-0.1-0.5-0.3-0.6-0.5c-0.2-0.2-0.3-0.4-0.4-0.7c-0.1-0.3-0.2-0.6-0.2-0.9c0-0.3,0.1-0.6,0.2-0.8
					c0.1-0.3,0.3-0.5,0.4-0.7s0.4-0.3,0.7-0.5C71.6,80.8,71.9,80.7,72.2,80.7z M72.1,81c-0.2,0-0.4,0-0.6,0.1
					c-0.2,0.1-0.3,0.2-0.4,0.4c-0.1,0.2-0.2,0.4-0.3,0.6c-0.1,0.2-0.1,0.5-0.1,0.8c0,0.3,0,0.6,0.1,0.8c0.1,0.2,0.1,0.5,0.3,0.6
					c0.1,0.2,0.3,0.3,0.4,0.4c0.2,0.1,0.4,0.1,0.6,0.1c0.2,0,0.4,0,0.5-0.1c0.2-0.1,0.3-0.2,0.4-0.3c0.1-0.2,0.2-0.4,0.3-0.6
					c0.1-0.2,0.1-0.5,0.1-0.9c0-0.3,0-0.6-0.1-0.9c-0.1-0.3-0.1-0.5-0.3-0.6c-0.1-0.2-0.3-0.3-0.4-0.4C72.6,81,72.4,81,72.1,81z"/>
				<path class="st0" d="M78.3,81v-0.1h1.5V81h-0.2c-0.2,0-0.3,0.1-0.4,0.2c0,0.1-0.1,0.2-0.1,0.4v1.7c0,0.4,0,0.7-0.1,1
					c0,0.1-0.1,0.2-0.2,0.3c-0.1,0.1-0.2,0.2-0.3,0.3c-0.1,0.1-0.3,0.1-0.4,0.2c-0.2,0-0.4,0.1-0.6,0.1c-0.2,0-0.4,0-0.6-0.1
					c-0.2,0-0.3-0.1-0.4-0.2c-0.1-0.1-0.2-0.2-0.3-0.3c-0.1-0.1-0.1-0.2-0.2-0.4c-0.1-0.2-0.1-0.5-0.1-1v-1.6c0-0.1,0-0.2,0-0.3
					c0-0.1,0-0.1-0.1-0.2c0,0-0.1-0.1-0.1-0.1c-0.1,0-0.1,0-0.2,0h-0.2v-0.1h1.8V81H77c-0.1,0-0.1,0-0.2,0c-0.1,0-0.1,0-0.1,0.1
					s-0.1,0.1-0.1,0.2c0,0.1,0,0.2,0,0.3v1.8c0,0.2,0,0.4,0,0.5s0.1,0.3,0.2,0.5c0.1,0.1,0.2,0.2,0.3,0.3c0.1,0.1,0.3,0.1,0.6,0.1
					c0.1,0,0.3,0,0.4,0c0.1,0,0.2-0.1,0.3-0.1c0.1-0.1,0.2-0.1,0.3-0.2c0.1-0.1,0.1-0.2,0.2-0.3c0.1-0.2,0.1-0.5,0.1-0.9v-1.7
					c0-0.3,0-0.4-0.1-0.5C78.8,81,78.6,81,78.5,81H78.3z"/>
				<path class="st0" d="M84.6,80.7l0.1,1.3h-0.1c-0.1-0.4-0.3-0.7-0.5-0.8C83.8,81,83.6,81,83.2,81c-0.2,0-0.5,0-0.7,0.1
					c-0.2,0.1-0.4,0.2-0.5,0.4c-0.1,0.2-0.2,0.4-0.3,0.6c-0.1,0.2-0.1,0.5-0.1,0.8c0,0.4,0.1,0.8,0.2,1.1c0.1,0.2,0.2,0.3,0.3,0.4
					c0.1,0.1,0.2,0.2,0.3,0.3c0.1,0.1,0.2,0.1,0.4,0.2c0.1,0,0.3,0.1,0.4,0.1c0.3,0,0.6-0.1,0.9-0.2v-1.2c0-0.1,0-0.2,0-0.3
					c0-0.1,0-0.1,0-0.2c0,0,0-0.1-0.1-0.1c0,0-0.1,0-0.1-0.1c-0.1,0-0.2-0.1-0.4-0.1v-0.1h1.6v0.1h-0.1c-0.1,0-0.1,0-0.2,0
					c0,0-0.1,0-0.1,0.1c0,0-0.1,0.1-0.1,0.2c0,0.1,0,0.2,0,0.3v1.3c-0.1,0.1-0.2,0.1-0.4,0.2C84.3,85,84.2,85,84,85
					c-0.2,0.1-0.5,0.1-0.8,0.1c-0.4,0-0.7-0.1-1-0.2c-0.3-0.1-0.5-0.3-0.7-0.4c-0.2-0.2-0.4-0.4-0.5-0.7c-0.1-0.3-0.2-0.5-0.2-0.8
					c0-0.4,0.1-0.7,0.3-1.1c0.2-0.4,0.5-0.7,0.9-0.9c0.3-0.2,0.7-0.3,1.1-0.3c0.1,0,0.2,0,0.2,0c0.1,0,0.1,0,0.2,0
					c0.1,0,0.1,0,0.2,0.1c0.1,0,0.2,0.1,0.3,0.1c0.1,0,0.2,0.1,0.2,0.1c0,0,0.1,0,0.1-0.1c0,0,0-0.1,0.1-0.2H84.6z"/>
				<path class="st0" d="M87.4,82.8h1.9v-1.2c0-0.1,0-0.2,0-0.2c0-0.1,0-0.1,0-0.2c0,0,0-0.1-0.1-0.1c0,0-0.1,0-0.1-0.1
					C89.1,81,89,81,88.9,81h-0.1v-0.1h1.8V81h-0.1c0,0-0.1,0-0.1,0c0,0-0.1,0-0.1,0c0,0-0.1,0-0.1,0.1c0,0-0.1,0.1-0.1,0.1
					c0,0.1,0,0.2,0,0.4v2.7c0,0.1,0,0.2,0,0.2c0,0.1,0,0.1,0,0.2c0,0,0,0.1,0,0.1c0,0,0.1,0,0.1,0.1c0.1,0,0.2,0.1,0.3,0.1h0.1V85
					h-1.8v-0.1h0.1c0.1,0,0.1,0,0.2,0c0.1,0,0.1,0,0.1-0.1c0,0,0.1-0.1,0.1-0.2c0-0.1,0-0.2,0-0.3V83h-1.9v1.3c0,0.1,0,0.2,0,0.2
					c0,0.1,0,0.1,0,0.2c0,0,0,0.1,0.1,0.1c0,0,0.1,0,0.1,0.1c0.1,0,0.2,0.1,0.3,0.1H88V85h-1.8v-0.1h0.2c0.2,0,0.3-0.1,0.4-0.2
					c0-0.1,0.1-0.2,0.1-0.5v-2.7c0-0.1,0-0.2,0-0.2c0-0.1,0-0.1,0-0.2c0,0,0-0.1-0.1-0.1c0,0-0.1,0-0.1-0.1c-0.1,0-0.2-0.1-0.3-0.1
					h-0.2v-0.1H88V81h-0.2c0,0-0.1,0-0.1,0c0,0-0.1,0-0.1,0c0,0-0.1,0-0.1,0.1c0,0-0.1,0.1-0.1,0.1c0,0.1,0,0.2,0,0.4V82.8z"/>
				<path class="st0" d="M95.2,80.8v1h-0.1c0-0.3-0.1-0.5-0.2-0.6c-0.1-0.1-0.3-0.2-0.5-0.2h-0.6v3.2c0,0.1,0,0.3,0,0.3
					c0,0.1,0,0.1,0.1,0.2c0,0,0.1,0.1,0.1,0.1c0.1,0,0.1,0,0.2,0h0.1V85h-1.8v-0.1h0.1c0.1,0,0.1,0,0.2,0c0.1,0,0.1,0,0.1-0.1
					c0,0,0.1-0.1,0.1-0.2c0-0.1,0-0.2,0-0.3v-3.2h-0.5c-0.1,0-0.2,0-0.3,0c-0.1,0-0.2,0.1-0.3,0.1c-0.1,0.1-0.1,0.1-0.2,0.2
					c0,0.1-0.1,0.2-0.1,0.4h-0.1v-1H95.2z"/>
			</g>
		</g>
	</g>
</g>
</svg>
