<?xml version="1.0" encoding="utf-8"?>
<!-- Generator: Adobe Illustrator 21.0.0, SVG Export Plug-In . SVG Version: 6.00 Build 0)  -->
<svg version="1.1" id="レイヤー_1" xmlns="http://www.w3.org/2000/svg" xmlns:xlink="http://www.w3.org/1999/xlink" x="0px"
	 y="0px" width="165.1px" height="36.3px" viewBox="0 0 165.1 36.3" style="enable-background:new 0 0 165.1 36.3;"
	 xml:space="preserve">
<style type="text/css">
	.st0{fill:#231815;}
	.st1{fill:#FFFFFF;}
	.st2{fill:#B4904F;}
</style>
<g>
	<g>
		<path class="st0" d="M7.8,20.7C5.4,22.1,2,23.5,0.3,24c-0.1,0-0.1,0.1,0,0.2c2.7,1.2,8.3-0.3,10.1-1.7C9.9,21.9,8.7,20.9,7.8,20.7
			z"/>
		<path class="st0" d="M20,12.4c0.3-0.5,0.9-1.3,1.8-2.2c-0.4,0.8-0.6,2-0.4,3.5c0.1,0.6,0.5,0.3,0.4,0c-0.2-2.5,0.9-4,1.4-4.5
			c1-1,1.9-0.4,1.6,0.5c-0.3,0.9-0.5,1.7-0.8,2.4c-0.3,0-0.6,0.1-0.8,0.2c-0.3,0.2-1,0.7-0.7,2c-0.8-0.1-1.6-0.1-2.4,0
			c-2.7,0.2-4.3,0.5-5.5,1.1c-0.1,0,0,0.1,0,0.1c1.7,0.5,2.8,1.4,3.6,2.8c0,0,0.1,0,0.1,0c0.5-1.2,2-1.6,3.4-1.6
			c2.5-0.1,4.7,0.1,7.4,0.6c2.3,0.4,5,0.9,8,1c4.8,0.2,6.5-1.8,7.1-2.9c0.9-1.7,0.5-3.9-1-5.9C41,6.4,35.6,3.4,28,5
			c-6.1,1.3-8.9,5-9.5,6.7C17.9,13.4,19.2,13.5,20,12.4z M23.2,14.4c-0.3-0.8-0.1-1.3,0.4-1.6c0.5-0.3,1.3-0.2,1.6,0.3
			c0.3,0.5,0.5,1.1,0.6,1.7C24.8,14.5,24,14.4,23.2,14.4z M27.7,15c-0.5-0.1-1-0.2-1.5-0.3c-0.1-0.7-0.3-1.5-0.7-2.1c0,0,0,0,0,0
			c0.4-0.7,1-0.8,1.3-0.8c0,0,0,0,0,0c0.6,0,1.1,0.3,1.3,0.7C28.4,13.2,28.1,14.2,27.7,15z M28.3,15.1c0.3-0.8,0.7-1.9,0.4-2.7
			c0-0.1-0.1-0.1-0.1-0.1c0.3-0.3,0.8-0.4,1.2-0.3c0.5,0.1,0.9,0.5,0.9,1c0.1,0.5-0.3,1.4-1.1,2.4C29.2,15.3,28.8,15.2,28.3,15.1z
			 M30.2,15.4c0.5-0.8,1.1-1.8,1-2.6c0.3-0.2,0.7-0.3,1-0.2c0.4,0.1,0.6,0.5,0.7,0.9c0,0.4-0.6,1.2-1.6,2.1
			C31,15.6,30.6,15.5,30.2,15.4z M32,15.7c0.8-0.7,1.5-1.5,1.4-2.2c0,0,0-0.1,0-0.1c0.6-0.2,1-0.1,1.3,0.3c0.2,0.3,0.2,0.8,0,1.2
			c-0.2,0.3-0.8,0.7-1.6,1C32.8,15.8,32.4,15.8,32,15.7z M36.8,15.6c-0.2,0.2-0.6,0.4-1.1,0.5c-0.5,0-1-0.1-1.6-0.1
			c0.4-0.2,0.8-0.5,1-0.8c0.2-0.2,0.3-0.5,0.3-0.8c0.7-0.1,1.3,0.2,1.5,0.6C37,15.2,37,15.4,36.8,15.6z M40,14.5
			c-0.8-0.1-1.8-0.1-2.7,0c-0.4-0.5-1.2-0.7-1.9-0.6c0-0.2-0.1-0.3-0.2-0.4c-0.1-0.1-0.2-0.2-0.3-0.3c1-0.3,2.3-0.5,3.4-0.6
			c1.2-0.1,2.3,0.4,3,1.2C42.2,14.6,41.5,14.6,40,14.5z M40.9,11.5c0,0,0.1,0.1-0.1,0.1c-0.2,0.1-0.7,0.1-1.8,0.2
			c-1.4,0-3.4,0.3-4.9,1c-0.2,0-0.5,0-0.8,0.1l0,0c-0.2-0.3-0.5-0.6-0.8-0.8c0,0-0.1,0-0.1,0c0.7-0.4,1.7-1,2.9-1.5
			c0.2-0.1,0.5-0.2,0.7-0.3c0.9-0.3,1.6-0.4,2.2-0.4C39.1,10.1,40.4,10.4,40.9,11.5z M37.4,8.9c0,0.1,0,0.4-2.4,1.3
			c-2,0.7-3.7,2-3.7,2c0,0-0.1,0.1-0.1,0.1c0,0-0.1,0.1-0.1,0.1c-0.2-0.4-0.6-0.8-1.1-0.9c0,0-0.1,0-0.1,0c0.6-0.4,1.3-1,1.9-1.4
			c0.4-0.3,0.8-0.6,1-0.7c0,0,0,0,0,0C34.9,7.5,37.4,8.6,37.4,8.9z M33.1,7.6c0.1,0.3-0.2,0.8-0.8,1.2c-0.2,0.1-0.6,0.4-1,0.8
			c-0.8,0.6-2.1,1.6-2.8,2.1c-0.1,0.1-0.2,0.1-0.3,0.2c-0.3-0.2-0.6-0.4-1-0.5h0c0.2-0.3,0.5-0.6,0.7-0.9c0.3-0.4,0.5-0.7,0.7-0.9
			c0.6-0.7,1-1.3,1.1-1.7C31.2,6.7,32.9,7.1,33.1,7.6z M28.7,7.2c0.2,0,0.4,0.2,0.4,0.3c0.1,0.3,0,0.6-0.9,1.6
			c-0.2,0.2-0.5,0.6-0.8,1c-0.3,0.4-0.6,0.9-0.9,1.3c0,0,0,0,0,0c-0.6,0.1-1.1,0.4-1.4,0.9c-0.1-0.1-0.3-0.1-0.4-0.2
			c0.2-0.7,0.7-2.2,0.8-2.5c0-0.4,0-0.7-0.1-1C25.7,8,27.2,7,28.7,7.2z"/>
		<path class="st0" d="M44.2,24.7c-0.6-1.2-2.3-3.1-7.1-2.9c-3,0.1-5.7,0.6-8,1c-2.4,0.4-4.5,0.8-6.8,0.7c-1.8,0-3.5-1.2-4.6-3.7
			c-1.5-3.4-4.2-3.5-5.6-3.4c-0.8,0.1-1.7,0.2-2.6,0.9c0,0-0.1,0-0.1,0c-2.6-1.6-7.6-1.1-9.4-0.5c-0.1,0-0.1,0.2,0,0.2
			c2,0.6,7.1,1.9,9.9,3.9c2.5,1.8,3.1,4.4,10.3,4.8c0.7,0,1.5,0,2.4,0c-0.3,1.3,0.4,1.8,0.7,2c0.3,0.1,0.5,0.2,0.8,0.2
			c0.3,0.8,0.5,1.5,0.8,2.4c0.3,0.9-0.6,1.6-1.6,0.5c-0.5-0.5-1.7-2-1.4-4.5c0-0.3-0.4-0.6-0.4,0c-0.2,1.6,0.1,2.8,0.5,3.6
			c-1-0.9-1.6-1.8-1.9-2.3c-0.8-1.2-2-1-1.4,0.7c0.6,1.7,3.3,5.4,9.5,6.7c7.6,1.6,13-1.3,15.3-4.3C44.7,28.6,45.1,26.4,44.2,24.7z
			 M28.2,27.3c-0.2,0.4-0.7,0.7-1.3,0.7c0,0,0,0,0,0c-0.3,0-1-0.1-1.3-0.8c0,0,0,0,0,0c0.4-0.6,0.6-1.3,0.7-2c0.5-0.1,1-0.2,1.5-0.3
			C28.1,25.7,28.4,26.8,28.2,27.3z M28.2,28.1c0.1,0.1,0.2,0.2,0.3,0.2c0.7,0.5,1.9,1.4,2.8,2.1c0.5,0.4,0.9,0.7,1,0.8
			c0.6,0.4,0.9,0.9,0.8,1.2c-0.2,0.5-1.9,0.9-3.4-0.3c-0.1-0.5-0.5-1-1.1-1.7c-0.2-0.2-0.4-0.5-0.7-0.9c-0.2-0.3-0.4-0.6-0.7-0.9h0
			C27.6,28.5,28,28.3,28.2,28.1z M34.1,27.1c1.5,0.7,3.6,0.9,4.9,1c1.1,0,1.6,0.1,1.8,0.2c0.1,0.1,0.1,0.1,0.1,0.1
			c-0.5,1.1-1.8,1.4-2.8,1.5c-0.6,0-1.3-0.1-2.2-0.4c-0.2-0.1-0.4-0.2-0.7-0.3c-1.2-0.4-2.2-1-2.9-1.5c0,0,0.1,0,0.1,0
			c0.4-0.1,0.7-0.4,0.8-0.8l0,0C33.6,27.1,33.8,27.1,34.1,27.1z M38.3,27.4c-1.2-0.1-2.4-0.3-3.4-0.6c0.1-0.1,0.2-0.2,0.3-0.3
			c0.1-0.1,0.2-0.3,0.2-0.4c0.8,0.1,1.5-0.2,1.9-0.6c0.9,0.1,1.9,0.1,2.7,0c1.4-0.1,2.1-0.1,1.4,0.8C40.7,27,39.5,27.5,38.3,27.4z
			 M36.8,24.4c0.2,0.2,0.2,0.4,0.1,0.6c-0.2,0.4-0.8,0.7-1.5,0.6c0-0.3-0.1-0.6-0.3-0.8c-0.2-0.3-0.5-0.5-0.9-0.7
			c0.6-0.1,1.1-0.1,1.7-0.1C36.3,24,36.6,24.1,36.8,24.4z M34.7,25c0.3,0.4,0.3,0.8,0,1.2c-0.3,0.4-0.7,0.5-1.3,0.3c0,0,0-0.1,0-0.1
			c0.1-0.7-0.6-1.5-1.4-2.2c0.4-0.1,0.8-0.1,1.1-0.1C34,24.4,34.5,24.7,34.7,25z M32.9,26.4c0,0.4-0.3,0.7-0.7,0.9
			c-0.4,0.1-0.7,0.1-1-0.2c0.1-0.7-0.5-1.8-1-2.5c0.4-0.1,0.8-0.1,1.2-0.2C32.4,25.2,33,26,32.9,26.4z M31.1,27.6
			c0,0,0.1,0.1,0.1,0.1c0,0,0,0.1,0.1,0.1c0.1,0.1,1.7,1.3,3.7,2c2.3,0.8,2.4,1.1,2.4,1.3c0,0.3-2.5,1.3-4.7-0.4c0,0,0,0,0,0
			c-0.2-0.1-0.6-0.4-1-0.7c-0.6-0.4-1.2-1-1.9-1.4c0,0,0.1,0,0.1,0C30.4,28.4,30.8,28,31.1,27.6z M29.5,24.7c0.1,0,0.1,0,0.2,0
			c0.7,1,1.1,1.9,1,2.4c-0.1,0.5-0.4,0.8-0.9,1c-0.4,0.1-0.9,0-1.2-0.3c0,0,0.1-0.1,0.1-0.1c0.3-0.7,0-1.9-0.4-2.7
			C28.7,24.8,29.1,24.7,29.5,24.7z M23.5,27.2c-0.5-0.3-0.6-0.9-0.4-1.6c0.8-0.1,1.7-0.2,2.5-0.3c-0.1,0.6-0.3,1.2-0.6,1.6
			C24.8,27.4,24.1,27.5,23.5,27.2z M24.7,27.8c0.2,0,0.3-0.1,0.4-0.2c0.3,0.5,0.8,0.8,1.4,0.9c0,0,0,0,0,0c0.3,0.4,0.6,0.8,0.9,1.3
			c0.3,0.4,0.6,0.8,0.8,1c0.9,1,1,1.3,0.9,1.6c0,0.1-0.2,0.2-0.4,0.3c-1.5,0.2-3-0.8-3.3-1.4c0.1-0.3,0.1-0.6,0.1-1
			C25.4,30,24.9,28.5,24.7,27.8z"/>
		<g>
			<g>
				<circle class="st1" cx="13.3" cy="19.1" r="1.2"/>
				<circle class="st2" cx="13.3" cy="19.1" r="0.7"/>
			</g>
		</g>
	</g>
	<g>
		<g>
			<g>
				<path class="st0" d="M103.2,2.4c0,0.1-0.1,0.3-0.2,0.4c-0.1,0-0.1,0-0.3,0c0,0-0.1,0-0.1,0c-0.1,0-0.3,0-0.3,0c0,0,0,0,0,0
					c-0.4,0-0.8,0-1.1,0.1c0,0.2,0.1,0.5,0.2,0.8c0.1,0.3,0.1,0.5,0.2,0.7c0,0.1,0,0.2,0,0.3c0,0.1-0.1,0.3-0.2,0.3c0,0-0.1,0-0.1,0
					c-0.2,0-0.3-0.2-0.3-0.3c0-0.1,0-0.1,0-0.2c0-0.2-0.1-0.4-0.1-0.7c0-0.3-0.1-0.6-0.1-0.9c-0.2,0-0.4,0.1-0.7,0.1
					c-0.3,0.1-0.5,0.1-0.8,0.2c-0.2,0.1-0.4,0.1-0.5,0.2c0,0-0.1,0-0.1,0c-0.1,0-0.1,0-0.2-0.1c-0.1,0-0.1-0.1-0.1-0.2
					c0-0.2,0.1-0.5,0.3-0.5c0,0,0,0,0.1,0c0,0,0.1,0,0.1,0c0,0,0.1,0,0.1,0c0,0,0.1,0,0.1,0c0.1,0,0.2,0,0.2,0
					c0.2,0,0.4-0.1,0.6-0.1l0.7-0.1l-0.2-0.8c-0.4,0.1-0.6,0.1-0.9,0.1c-0.1,0-0.2,0-0.2,0.1C99.1,1.9,99,2,98.9,2
					c-0.1,0-0.1,0-0.2,0c0,0-0.1,0-0.1,0c-0.1-0.1-0.1-0.1-0.1-0.2c0,0,0-0.1,0-0.1c0-0.2,0.2-0.3,0.3-0.4c0,0,0.1,0,0.1,0
					c0,0,0.1,0,0.1,0c0,0,0.1,0,0.1,0c0,0,0,0,0.1,0c0.2,0,0.7-0.1,0.9-0.1c0-0.1-0.1-0.5-0.2-0.6c0-0.1-0.1-0.2-0.1-0.3v0
					c0-0.1,0.1-0.2,0.2-0.2c0.1,0,0.1,0,0.2,0c0.1,0,0.1,0,0.1,0c0.1,0,0.2,0.2,0.2,0.2v0c0,0,0,0.1,0,0.1c0,0,0,0.1,0,0.1
					c0,0,0,0,0,0.1c0,0.2,0,0.4,0.1,0.6c0.3,0,0.5-0.1,0.9-0.1c0.1,0,0.4-0.1,0.5-0.1c0.1,0,0.2-0.1,0.2-0.1c0,0,0.1,0,0.1,0
					c0.1,0,0.1,0.1,0.1,0.1c0,0.1,0,0.1,0,0.2c0,0.1-0.1,0.2-0.2,0.3c-0.1,0-0.2,0-0.3,0c-0.1,0-0.2,0-0.3,0c-0.3,0-0.6,0-0.9,0.1
					c0.1,0.2,0.1,0.6,0.2,0.8c0.3,0,0.9-0.1,1.2-0.2c0.2,0,0.4-0.1,0.5-0.1c0.1,0,0.2-0.1,0.3-0.1c0.1,0,0.1,0,0.2,0c0,0,0,0,0.1,0
					c0,0,0.1,0.1,0.1,0.1C103.3,2.2,103.2,2.3,103.2,2.4z"/>
				<path class="st0" d="M113.6,2.9c-0.1,0.1-0.2,0.2-0.3,0.2c-0.1,0-0.1,0-0.2-0.1c-0.1,0-0.2-0.1-0.3-0.2
					c-0.2-0.1-0.3-0.2-0.4-0.3c-0.1-0.1-0.3-0.2-0.5-0.3c-0.1-0.1-0.2-0.1-0.4-0.2c0,0.1,0,0.2,0,0.4c0,0.3,0,0.5,0,0.7
					c0,0.3,0,0.6,0,0.9c0,0.1,0,0.1,0,0.2c0,0,0,0.1,0,0.1c0,0.1,0,0.2,0,0.2c0,0.1-0.2,0.2-0.3,0.2c0,0,0,0,0,0
					c-0.1,0-0.2,0-0.3-0.1c0,0,0-0.1,0-0.2c0-0.1,0-0.2,0-0.2c0-0.3,0-0.7,0-1.1c0-0.4,0-0.9,0-1.1v0c0-0.5,0-1.1,0-1.3
					c0-0.1,0-0.1-0.1-0.2c0-0.1,0-0.1,0-0.2c0,0,0,0,0,0c0-0.2,0.2-0.2,0.4-0.2c0,0,0,0,0,0c0.2,0,0.3,0.1,0.3,0.2
					c0,0.1-0.1,0.3-0.1,0.4c0,0.2,0,0.3,0,0.5c0,0.1,0,0.2,0,0.3c0,0,0,0.1,0,0.1c0.3,0.1,0.5,0.2,0.8,0.3c0.3,0.1,0.6,0.2,0.8,0.4
					c0.2,0.1,0.3,0.1,0.4,0.1c0.1,0,0.1,0,0.2,0c0.1,0,0.1,0,0.1,0c0,0,0,0,0,0C113.8,2.6,113.7,2.8,113.6,2.9z M113.5,1.5
					c0,0.1-0.1,0.1-0.2,0.1h0c0,0-0.1-0.1-0.1-0.1c-0.1-0.1-0.2-0.2-0.2-0.3c-0.1-0.1-0.2-0.2-0.2-0.3c0,0-0.1-0.1-0.1-0.1
					c0,0,0-0.1,0.1-0.1c0,0,0.1,0,0.1,0c0,0,0.1,0,0.1,0c0.1,0.1,0.2,0.1,0.3,0.2c0.1,0.1,0.3,0.3,0.3,0.4c0,0,0,0,0,0
					C113.6,1.4,113.6,1.4,113.5,1.5z M114.2,1c0,0.1-0.1,0.1-0.2,0.1h0c0,0-0.1-0.1-0.1-0.1c-0.1-0.1-0.2-0.2-0.2-0.3
					c-0.1-0.1-0.2-0.2-0.2-0.2c0,0-0.1-0.1-0.1-0.1c0,0,0-0.1,0.1-0.1c0,0,0.1,0,0.1,0c0,0,0.1,0,0.1,0c0.1,0.1,0.2,0.1,0.3,0.2
					c0.1,0.1,0.3,0.2,0.3,0.4c0,0,0,0,0,0C114.2,0.9,114.2,1,114.2,1z"/>
				<path class="st0" d="M121.9,0.6c0,0.1,0,0.2,0,0.2l0,0.7l0,0.9c0,0,0,0,0,0c0,0.2-0.1,0.4-0.3,0.4c-0.3,0-0.3-0.2-0.3-0.4
					c0,0,0,0,0,0l0-1c0,0,0,0,0,0c0-0.1,0-0.5-0.1-0.7c0,0-0.1-0.2-0.1-0.2c0,0,0,0,0,0c0-0.1,0.2-0.2,0.3-0.2c0,0,0.1,0,0.1,0
					c0.1,0,0.2,0,0.3,0.1C121.9,0.5,121.9,0.5,121.9,0.6C121.9,0.6,121.9,0.6,121.9,0.6z M124.1,0.6c0,0.2,0,0.5,0,0.7
					c0,0,0,0.1,0,0.1c0,0.3,0,0.6,0,0.9c0,0,0,0.1,0,0.1c0,0.5-0.1,1-0.4,1.5c-0.3,0.3-0.5,0.5-0.9,0.7c-0.1,0.1-0.2,0.1-0.4,0.1
					c0,0,0,0,0,0c-0.1,0-0.3-0.1-0.4-0.2c-0.1-0.1-0.2-0.2-0.2-0.2v0c0-0.1,0.1-0.1,0.2-0.1c0.1,0,0.2-0.1,0.3-0.1
					c0.2-0.1,0.6-0.2,0.8-0.4c0.2-0.2,0.4-0.3,0.5-0.6c0.1-0.3,0.1-0.6,0.1-1c0-0.1,0-0.1,0-0.2c0-0.4,0-0.8,0-1.2
					c0-0.1-0.1-0.2-0.1-0.3c0,0,0,0,0,0c0-0.1,0.2-0.2,0.3-0.2c0,0,0.1,0,0.1,0c0.1,0,0.2,0,0.3,0.1c0,0,0,0.1,0,0.1
					C124.1,0.5,124.1,0.5,124.1,0.6z"/>
			</g>
		</g>
		<g>
			<g>
				<path class="st0" d="M56,13c0-2.6,0-3-1.5-3.1l-0.6,0c-0.1-0.1-0.1-0.5,0-0.6c1.2,0,2,0.1,3.1,0.1c1,0,1.8,0,2.9-0.1
					c0.1,0.1,0.2,0.5,0,0.6l-0.5,0C58,10,58,10.4,58,13v2.8c0,0.5,0,0.9,0.3,0.9c0.2,0,0.5-0.1,0.7-0.3c0.3-0.3,1-0.9,1.3-1.2
					l2.7-2.6c0.5-0.4,1.7-1.7,1.9-2.1c0.1-0.2,0.2-0.3,0.2-0.4c0-0.1-0.1-0.2-0.4-0.2L64,9.8c-0.2-0.2-0.1-0.5,0-0.6
					c0.9,0,1.9,0.1,2.7,0.1s1.7,0,2.5-0.1c0.2,0.1,0.2,0.5,0,0.6c-0.6,0-1.6,0.3-2.3,0.7c-0.7,0.4-2.1,1.6-3.5,2.9l-2.2,2.1
					c-0.3,0.3-0.6,0.6-0.6,0.8c0,0.2,0.1,0.4,0.5,0.8c2.4,2.7,4.3,4.9,6.2,7c0.6,0.6,1.1,0.9,2,1l0.7,0.1c0.2,0.1,0.1,0.5,0,0.6
					c-0.6,0-1.6-0.1-2.8-0.1c-1,0-1.9,0-3,0.1c-0.2,0-0.2-0.5-0.1-0.6l0.6-0.1c0.3,0,0.6-0.1,0.6-0.2c0-0.1-0.2-0.3-0.3-0.6
					c-0.5-0.6-1.1-1.3-2.1-2.3l-2-2.2c-1.4-1.6-1.8-2.1-2.4-2.1c-0.4,0-0.4,0.3-0.4,1.2v3.2c0,2.6,0,2.9,1.4,3.1l0.7,0.1
					c0.1,0.1,0.1,0.5,0,0.6c-1.2,0-2.1-0.1-3-0.1c-1,0-1.9,0-2.9,0.1c-0.1-0.1-0.2-0.4,0-0.6l0.5-0.1c1.3-0.2,1.4-0.5,1.4-3.1V13z"
					/>
				<path class="st0" d="M78.6,13.1c0-2.6,0-3-1.5-3.2l-0.6,0c-0.1-0.1-0.1-0.5,0-0.6c1.2,0,2.1,0.1,3.1,0.1c1,0,1.8,0,3.1-0.1
					c0.1,0.1,0.2,0.5,0,0.6l-0.6,0c-1.5,0.1-1.5,0.5-1.5,3.2v8.8c0,2.6,0,3,1.5,3.1l0.6,0.1c0.1,0.1,0.1,0.5,0,0.6
					c-1.2,0-2.1-0.1-3.1-0.1c-1,0-1.9,0-3.1,0.1c-0.1-0.1-0.2-0.5,0-0.6l0.6-0.1c1.5-0.2,1.5-0.5,1.5-3.1V13.1z"/>
				<path class="st0" d="M93.4,12.5c0-1.7-0.1-2.3-1.2-2.4L91.7,10c-0.2-0.1-0.2-0.5,0-0.6c2.1-0.1,4.1-0.2,6.2-0.2
					c2.1,0,3.8,0.1,5.4,0.7c3.3,1.2,5,4,5,7.3c0,3.1-1.5,5.8-4.3,7.4c-1.6,0.9-3.6,1.2-5.5,1.2c-1.6,0-3.2-0.2-4-0.2
					c-1,0-1.9,0-3.1,0.1c-0.1-0.1-0.2-0.5,0-0.6l0.6-0.1c1.4-0.2,1.5-0.5,1.5-3.1V12.5z M95.4,21.4c0,1.3,0.1,2.1,0.5,2.7
					c0.5,0.8,1.5,1,3,1c4.8,0,7-3.1,7-7.8c0-2.7-1.3-7.3-7.8-7.3c-1.5,0-2.3,0.2-2.5,0.3c-0.2,0.1-0.2,0.8-0.2,1.9V21.4z"/>
				<path class="st0" d="M114.7,17.6c0-5,3.7-8.7,8.8-8.7c5.7,0,8.6,4.1,8.6,8.5c0,5-3.8,8.6-8.6,8.6C118,26,114.7,22.1,114.7,17.6z
					 M129.7,18.2c0-4.1-1.8-8.5-6.5-8.5c-2.6,0-5.9,1.8-5.9,7.2c0,3.7,1.8,8.4,6.7,8.4C126.8,25.3,129.7,23,129.7,18.2z"/>
				<path class="st0" d="M140.4,13c0-2.4-0.1-2.8-1.1-2.9l-0.8-0.1c-0.2-0.1-0.2-0.5,0-0.6c1.4-0.1,3.1-0.2,5.5-0.2
					c1.5,0,3,0.1,4.1,0.7c1.2,0.6,2.1,1.7,2.1,3.5c0,2.4-1.9,3.6-3.1,4.1c-0.1,0.1,0,0.4,0.1,0.6c2,3.2,3.3,5.2,5,6.6
					c0.4,0.4,1,0.6,1.7,0.7c0.1,0,0.1,0.2,0,0.3c-0.2,0.1-0.6,0.1-1.1,0.1c-2.1,0-3.4-0.6-5.1-3.1c-0.6-0.9-1.7-2.6-2.4-3.7
					c-0.4-0.5-0.8-0.8-1.8-0.8c-1.1,0-1.2,0-1.2,0.5v3.1c0,2.6,0,2.9,1.5,3.1l0.5,0.1c0.1,0.1,0.1,0.5,0,0.6c-1.1,0-2-0.1-2.9-0.1
					c-1,0-1.9,0-3.1,0.1c-0.1-0.1-0.2-0.4,0-0.6l0.6-0.1c1.4-0.2,1.5-0.5,1.5-3.1V13z M142.4,16.6c0,0.4,0,0.7,0.1,0.8
					c0.1,0.1,0.4,0.1,1.7,0.1c0.9,0,1.8-0.1,2.6-0.6c0.7-0.5,1.2-1.4,1.2-3.1c0-2-1.2-3.8-4-3.8c-1.5,0-1.6,0.1-1.6,0.8V16.6z"/>
				<path class="st0" d="M160.8,13.1c0-2.6,0-3-1.5-3.2l-0.6,0c-0.1-0.1-0.1-0.5,0-0.6c1.2,0,2.1,0.1,3.1,0.1c1,0,1.8,0,3.1-0.1
					c0.1,0.1,0.2,0.5,0,0.6l-0.6,0c-1.5,0.1-1.5,0.5-1.5,3.2v8.8c0,2.6,0,3,1.5,3.1l0.6,0.1c0.1,0.1,0.1,0.5,0,0.6
					c-1.2,0-2.1-0.1-3.1-0.1c-1,0-1.9,0-3.1,0.1c-0.1-0.1-0.2-0.5,0-0.6l0.6-0.1c1.5-0.2,1.5-0.5,1.5-3.1V13.1z"/>
			</g>
		</g>
		<g>
			<g>
				<path class="st0" d="M66.5,34.1v1.3c0,0.3,0,0.5,0.1,0.5c0.1,0.1,0.2,0.1,0.4,0.1h0.2v0.1h-1.9v-0.1h0.2c0.2,0,0.3-0.1,0.4-0.2
					c0-0.1,0.1-0.2,0.1-0.5v-2.9c0-0.3,0-0.4-0.1-0.5c-0.1-0.1-0.2-0.1-0.4-0.1h-0.2v-0.1h1.6c0.4,0,0.7,0,0.9,0.1
					c0.1,0,0.2,0.1,0.3,0.2c0.1,0.1,0.2,0.2,0.3,0.2c0.1,0.1,0.1,0.2,0.2,0.3c0,0.1,0.1,0.2,0.1,0.4c0,0.2,0,0.3-0.1,0.5
					c-0.1,0.2-0.2,0.3-0.3,0.4c-0.1,0.1-0.3,0.2-0.4,0.3c-0.2,0.1-0.4,0.1-0.6,0.1C67.1,34.2,66.8,34.2,66.5,34.1z M66.5,33.9
					c0.1,0,0.2,0,0.3,0.1c0.1,0,0.2,0,0.2,0c0.1,0,0.2,0,0.3-0.1c0.1,0,0.2-0.1,0.3-0.2c0.1-0.1,0.1-0.2,0.2-0.3
					c0-0.1,0.1-0.2,0.1-0.4c0-0.2,0-0.3-0.1-0.4c0-0.1-0.1-0.2-0.2-0.3c-0.1-0.1-0.2-0.2-0.3-0.2C67.2,32,67.1,32,67,32
					c-0.1,0-0.3,0-0.4,0.1V33.9z"/>
				<path class="st0" d="M73.6,35l0.1,0l-0.4,1.2h-3.4v-0.1h0.2c0.2,0,0.3-0.1,0.4-0.2c0-0.1,0.1-0.2,0.1-0.5v-2.9
					c0-0.3,0-0.4-0.1-0.5c-0.1-0.1-0.2-0.1-0.4-0.1h-0.2v-0.1h2v0.1c-0.1,0-0.2,0-0.3,0c-0.1,0-0.1,0-0.2,0c-0.1,0-0.1,0-0.1,0.1
					c0,0-0.1,0.1-0.1,0.1c0,0.1,0,0.2,0,0.5v2.8c0,0.2,0,0.3,0,0.3c0,0.1,0.1,0.1,0.1,0.1c0.1,0,0.2,0,0.5,0h0.3
					c0.3,0,0.6,0,0.7-0.1c0.1,0,0.1-0.1,0.2-0.1c0.1,0,0.1-0.1,0.2-0.2c0.1-0.1,0.1-0.2,0.2-0.2C73.5,35.2,73.6,35.1,73.6,35z"/>
				<path class="st0" d="M77.8,34.7h-1.7l-0.3,0.7c-0.1,0.2-0.1,0.3-0.1,0.4c0,0,0,0.1,0,0.1c0,0,0,0.1,0.1,0.1c0,0,0.1,0,0.2,0.1
					c0.1,0,0.2,0,0.3,0v0.1h-1.4v-0.1c0.1,0,0.2,0,0.3-0.1c0.1,0,0.1-0.1,0.2-0.1c0-0.1,0.1-0.1,0.1-0.2c0-0.1,0.1-0.2,0.1-0.3
					l1.6-3.6h0.1l1.5,3.7c0.1,0.2,0.1,0.3,0.2,0.4c0.1,0.1,0.1,0.2,0.2,0.2s0.1,0.1,0.2,0.1s0.1,0,0.2,0v0.1h-1.8v-0.1
					c0.2,0,0.3,0,0.4-0.1c0.1-0.1,0.1-0.1,0.1-0.2c0-0.1,0-0.2-0.1-0.5L77.8,34.7z M77.7,34.5L77,32.7l-0.8,1.8H77.7z"/>
				<path class="st0" d="M80.4,31.8h1.2l2.7,3.3v-2.6c0-0.2,0-0.3,0-0.4c0-0.1-0.1-0.2-0.1-0.2c0,0-0.1-0.1-0.1-0.1
					c-0.1,0-0.1,0-0.2,0h-0.2v-0.1h1.5v0.1h-0.2c-0.1,0-0.1,0-0.2,0c-0.1,0-0.1,0-0.1,0.1c0,0-0.1,0.1-0.1,0.2c0,0.1,0,0.2,0,0.3
					v3.7h-0.1l-2.9-3.6v2.7c0,0.2,0,0.3,0,0.4s0.1,0.2,0.1,0.2c0,0,0.1,0.1,0.1,0.1c0.1,0,0.1,0,0.2,0h0.2v0.1h-1.5v-0.1h0.2
					c0.1,0,0.1,0,0.2,0c0.1,0,0.1,0,0.1-0.1c0,0,0.1-0.1,0.1-0.2c0-0.1,0-0.2,0-0.3v-3.1c-0.1-0.1-0.1-0.1-0.2-0.2
					c0,0-0.1-0.1-0.1-0.1c0,0-0.1-0.1-0.1-0.1c0,0-0.1,0-0.2-0.1c-0.1,0-0.2,0-0.3,0V31.8z"/>
				<path class="st0" d="M90.1,31.8v1H90c0-0.3-0.1-0.5-0.2-0.6c-0.1-0.1-0.3-0.2-0.6-0.2h-0.6v3.4c0,0.1,0,0.3,0,0.4
					c0,0.1,0.1,0.2,0.1,0.2c0,0,0.1,0.1,0.1,0.1c0.1,0,0.1,0,0.2,0h0.2v0.1h-1.9v-0.1h0.2c0.1,0,0.1,0,0.2,0c0.1,0,0.1,0,0.1-0.1
					c0,0,0.1-0.1,0.1-0.2c0-0.1,0-0.2,0-0.3V32h-0.5c-0.1,0-0.3,0-0.4,0c-0.1,0-0.2,0.1-0.3,0.1c-0.1,0.1-0.1,0.1-0.2,0.2
					c0,0.1-0.1,0.2-0.1,0.4h-0.1v-1H90.1z"/>
				<path class="st0" d="M94.3,31.7v1.5h-0.1c-0.1-0.4-0.2-0.7-0.4-0.9c-0.2-0.2-0.5-0.3-0.8-0.3c-0.1,0-0.2,0-0.3,0.1
					c-0.1,0-0.2,0.1-0.2,0.2c-0.1,0.1-0.1,0.1-0.2,0.2s-0.1,0.2-0.1,0.3c0,0.1,0,0.2,0,0.2c0,0.1,0.1,0.2,0.3,0.3
					c0.3,0.2,0.5,0.3,0.8,0.4c0.2,0.1,0.5,0.3,0.8,0.5c0.2,0.1,0.3,0.3,0.4,0.4c0.1,0.2,0.1,0.3,0.1,0.5c0,0.2,0,0.3-0.1,0.5
					c-0.1,0.1-0.2,0.3-0.3,0.4c-0.1,0.1-0.3,0.2-0.4,0.3c-0.2,0.1-0.4,0.1-0.6,0.1c-0.1,0-0.3,0-0.4,0c0,0-0.1,0-0.2,0
					c-0.1,0-0.2,0-0.3-0.1c-0.1,0-0.2-0.1-0.3-0.1c-0.1,0-0.1,0-0.1,0c-0.1,0-0.1,0-0.1,0c0,0-0.1,0.1-0.1,0.2h-0.1v-1.5h0.1
					c0.1,0.3,0.1,0.6,0.2,0.7c0,0.1,0.1,0.2,0.2,0.2c0.1,0.1,0.2,0.1,0.3,0.2c0.1,0.1,0.2,0.1,0.3,0.1c0.1,0,0.2,0,0.3,0
					c0.1,0,0.3,0,0.4-0.1c0.1,0,0.2-0.1,0.3-0.2c0.1-0.1,0.1-0.1,0.2-0.2s0.1-0.2,0.1-0.3c0-0.1,0-0.2-0.1-0.3
					c-0.1-0.1-0.2-0.2-0.3-0.3c-0.1-0.1-0.3-0.2-0.5-0.3c-0.4-0.2-0.7-0.4-1-0.6c-0.2-0.1-0.3-0.3-0.4-0.4c-0.1-0.2-0.1-0.3-0.1-0.5
					c0-0.2,0-0.3,0.1-0.4c0.1-0.1,0.2-0.3,0.3-0.4c0.1-0.1,0.3-0.2,0.4-0.3c0.2-0.1,0.3-0.1,0.5-0.1c0.2,0,0.5,0.1,0.7,0.2
					c0.1,0,0.1,0,0.2,0.1c0,0,0.1,0,0.1,0c0.1,0,0.1,0,0.1,0c0,0,0.1-0.1,0.1-0.2H94.3z"/>
				<path class="st0" d="M99.8,32v1.7h0.8c0.1,0,0.2,0,0.2,0c0.1,0,0.1,0,0.2-0.1c0,0,0.1-0.1,0.1-0.2c0-0.1,0-0.2,0.1-0.3h0.1v1.5
					h-0.1c0-0.1,0-0.2,0-0.3c0-0.1-0.1-0.1-0.1-0.2c0-0.1-0.1-0.1-0.2-0.1c-0.1,0-0.2,0-0.3,0h-0.8v1.4c0,0.1,0,0.2,0,0.3
					c0,0.1,0,0.1,0,0.2s0,0.1,0.1,0.1c0,0,0.1,0,0.1,0.1c0.1,0.1,0.2,0.1,0.3,0.1h0.2v0.1h-1.9v-0.1h0.2c0.1,0,0.1,0,0.2,0
					c0.1,0,0.1,0,0.1-0.1s0.1-0.1,0.1-0.2c0-0.1,0-0.2,0-0.4v-2.9c0-0.1,0-0.2,0-0.3c0-0.1,0-0.1,0-0.2c0,0,0-0.1-0.1-0.1
					c0,0-0.1,0-0.1-0.1c0,0-0.1,0-0.1-0.1c0,0-0.1,0-0.2,0h-0.2v-0.1h3.3v1h-0.1c0-0.2-0.1-0.3-0.1-0.4s-0.1-0.2-0.2-0.2
					s-0.2-0.1-0.3-0.1c-0.1,0-0.2,0-0.4,0H99.8z"/>
				<path class="st0" d="M105.5,31.7c0.3,0,0.6,0.1,0.8,0.2c0.3,0.1,0.5,0.3,0.7,0.5c0.2,0.2,0.4,0.4,0.5,0.7
					c0.1,0.3,0.2,0.6,0.2,0.9c0,0.3-0.1,0.6-0.2,0.9c-0.1,0.3-0.3,0.5-0.5,0.7c-0.2,0.2-0.4,0.4-0.7,0.5c-0.3,0.1-0.5,0.2-0.8,0.2
					c-0.3,0-0.6-0.1-0.8-0.2c-0.3-0.1-0.5-0.3-0.7-0.5c-0.2-0.2-0.3-0.5-0.5-0.7c-0.1-0.3-0.2-0.6-0.2-0.9c0-0.3,0.1-0.6,0.2-0.9
					c0.1-0.3,0.3-0.5,0.5-0.7c0.2-0.2,0.4-0.4,0.7-0.5C104.9,31.7,105.2,31.7,105.5,31.7z M105.4,31.9c-0.2,0-0.4,0-0.6,0.1
					s-0.3,0.2-0.4,0.4c-0.1,0.2-0.2,0.4-0.3,0.6c-0.1,0.3-0.1,0.5-0.1,0.9c0,0.3,0,0.6,0.1,0.9c0.1,0.3,0.1,0.5,0.3,0.7
					c0.1,0.2,0.3,0.3,0.4,0.4c0.2,0.1,0.4,0.2,0.6,0.2c0.2,0,0.4,0,0.6-0.1s0.3-0.2,0.5-0.4c0.1-0.2,0.2-0.4,0.3-0.6
					c0.1-0.3,0.1-0.6,0.1-0.9c0-0.3,0-0.6-0.1-0.9c-0.1-0.3-0.2-0.5-0.3-0.7s-0.3-0.3-0.5-0.4C105.9,31.9,105.7,31.9,105.4,31.9z"/>
				<path class="st0" d="M113.3,36.2h-1.2l-1.5-2.1c-0.1,0-0.1,0-0.1,0c0,0-0.1,0-0.1,0c0,0-0.1,0-0.1,0c0,0-0.1,0-0.1,0v1.3
					c0,0.2,0,0.3,0,0.4c0,0.1,0.1,0.2,0.1,0.2c0,0,0.1,0.1,0.1,0.1c0.1,0,0.1,0,0.2,0h0.2v0.1h-1.9v-0.1h0.2c0.2,0,0.3-0.1,0.4-0.2
					c0-0.1,0.1-0.2,0.1-0.5v-2.9c0-0.3,0-0.4-0.1-0.5c-0.1-0.1-0.2-0.1-0.4-0.1h-0.2v-0.1h1.6c0.2,0,0.4,0,0.6,0
					c0.2,0,0.3,0,0.4,0.1c0.1,0,0.2,0.1,0.3,0.1c0.1,0.1,0.2,0.1,0.3,0.2c0.1,0.1,0.1,0.2,0.2,0.3c0,0.1,0.1,0.2,0.1,0.4
					c0,0.3-0.1,0.5-0.3,0.7c-0.2,0.2-0.5,0.3-0.8,0.4l0.9,1.3c0.1,0.1,0.2,0.3,0.3,0.4c0.1,0.1,0.2,0.2,0.2,0.2
					c0.1,0.1,0.2,0.1,0.3,0.1c0.1,0,0.2,0,0.3,0.1V36.2z M110.1,33.9c0,0,0.1,0,0.1,0c0,0,0.1,0,0.1,0c0.2,0,0.4,0,0.6-0.1
					c0.2,0,0.3-0.1,0.4-0.2c0.1-0.1,0.2-0.2,0.2-0.3s0.1-0.2,0.1-0.4c0-0.1,0-0.3-0.1-0.4c0-0.1-0.1-0.2-0.2-0.3
					c-0.1-0.1-0.2-0.1-0.3-0.2c-0.1,0-0.2-0.1-0.4-0.1c-0.1,0-0.3,0-0.5,0.1V33.9z"/>
				<path class="st0" d="M120.4,31.8v1h-0.1c0-0.3-0.1-0.5-0.2-0.6c-0.1-0.1-0.3-0.2-0.6-0.2h-0.6v3.4c0,0.1,0,0.3,0,0.4
					c0,0.1,0.1,0.2,0.1,0.2c0,0,0.1,0.1,0.1,0.1c0.1,0,0.1,0,0.2,0h0.2v0.1h-1.9v-0.1h0.2c0.1,0,0.1,0,0.2,0c0.1,0,0.1,0,0.1-0.1
					c0,0,0.1-0.1,0.1-0.2c0-0.1,0-0.2,0-0.3V32h-0.5c-0.1,0-0.3,0-0.4,0c-0.1,0-0.2,0.1-0.3,0.1c-0.1,0.1-0.1,0.1-0.2,0.2
					c0,0.1-0.1,0.2-0.1,0.4h-0.1v-1H120.4z"/>
				<path class="st0" d="M122.9,33.8h2.1v-1.3c0-0.1,0-0.2,0-0.3c0-0.1,0-0.1,0-0.2c0,0,0-0.1-0.1-0.1c0,0-0.1,0-0.1-0.1
					c-0.1-0.1-0.2-0.1-0.3-0.1h-0.2v-0.1h1.9v0.1h-0.2c0,0-0.1,0-0.1,0c0,0-0.1,0-0.1,0c0,0-0.1,0-0.1,0.1c0,0-0.1,0.1-0.1,0.1
					c0,0.1,0,0.2,0,0.4v2.9c0,0.1,0,0.2,0,0.3c0,0.1,0,0.1,0,0.2c0,0,0,0.1,0.1,0.1c0,0,0.1,0,0.1,0.1c0.1,0.1,0.2,0.1,0.3,0.1h0.2
					v0.1h-1.9v-0.1h0.2c0.1,0,0.1,0,0.2,0c0.1,0,0.1,0,0.2-0.1c0,0,0.1-0.1,0.1-0.2c0-0.1,0-0.2,0-0.4v-1.4h-2.1v1.4
					c0,0.1,0,0.2,0,0.3c0,0.1,0,0.1,0,0.2s0,0.1,0.1,0.1c0,0,0.1,0,0.1,0.1c0.1,0.1,0.2,0.1,0.3,0.1h0.2v0.1h-1.9v-0.1h0.2
					c0.2,0,0.3-0.1,0.4-0.2c0.1-0.1,0.1-0.2,0.1-0.5v-2.9c0-0.1,0-0.2,0-0.3c0-0.1,0-0.1,0-0.2c0,0,0-0.1-0.1-0.1c0,0-0.1,0-0.1-0.1
					c-0.1-0.1-0.2-0.1-0.3-0.1h-0.2v-0.1h1.9v0.1h-0.2c0,0-0.1,0-0.1,0c0,0-0.1,0-0.1,0c0,0-0.1,0-0.1,0.1c0,0-0.1,0.1-0.1,0.1
					c0,0.1,0,0.2,0,0.4V33.8z"/>
				<path class="st0" d="M129.7,31.7c0.3,0,0.6,0.1,0.8,0.2c0.3,0.1,0.5,0.3,0.7,0.5c0.2,0.2,0.4,0.4,0.5,0.7
					c0.1,0.3,0.2,0.6,0.2,0.9c0,0.3-0.1,0.6-0.2,0.9s-0.3,0.5-0.5,0.7c-0.2,0.2-0.4,0.4-0.7,0.5c-0.3,0.1-0.5,0.2-0.8,0.2
					c-0.3,0-0.6-0.1-0.8-0.2c-0.3-0.1-0.5-0.3-0.7-0.5c-0.2-0.2-0.3-0.5-0.5-0.7c-0.1-0.3-0.2-0.6-0.2-0.9c0-0.3,0.1-0.6,0.2-0.9
					c0.1-0.3,0.3-0.5,0.5-0.7c0.2-0.2,0.4-0.4,0.7-0.5C129.1,31.7,129.4,31.7,129.7,31.7z M129.7,31.9c-0.2,0-0.4,0-0.6,0.1
					s-0.3,0.2-0.4,0.4c-0.1,0.2-0.2,0.4-0.3,0.6c-0.1,0.3-0.1,0.5-0.1,0.9c0,0.3,0,0.6,0.1,0.9c0.1,0.3,0.1,0.5,0.3,0.7
					c0.1,0.2,0.3,0.3,0.4,0.4c0.2,0.1,0.4,0.2,0.6,0.2c0.2,0,0.4,0,0.6-0.1s0.3-0.2,0.5-0.4c0.1-0.2,0.2-0.4,0.3-0.6
					c0.1-0.3,0.1-0.6,0.1-0.9c0-0.3,0-0.6-0.1-0.9c-0.1-0.3-0.2-0.5-0.3-0.7s-0.3-0.3-0.5-0.4C130.1,31.9,129.9,31.9,129.7,31.9z"/>
				<path class="st0" d="M136.2,31.9v-0.1h1.6v0.1h-0.2c-0.2,0-0.3,0.1-0.4,0.2c0,0.1-0.1,0.2-0.1,0.5v1.8c0,0.4,0,0.8-0.1,1
					c0,0.1-0.1,0.2-0.2,0.3c-0.1,0.1-0.2,0.2-0.3,0.3c-0.1,0.1-0.3,0.1-0.5,0.2c-0.2,0-0.4,0.1-0.6,0.1c-0.2,0-0.5,0-0.6-0.1
					c-0.2,0-0.3-0.1-0.5-0.2c-0.1-0.1-0.2-0.2-0.3-0.3c-0.1-0.1-0.2-0.2-0.2-0.4c-0.1-0.2-0.1-0.6-0.1-1.1v-1.7c0-0.1,0-0.2,0-0.3
					c0-0.1,0-0.2-0.1-0.2c0,0-0.1-0.1-0.1-0.1c-0.1,0-0.1,0-0.2,0h-0.2v-0.1h1.9v0.1h-0.2c-0.1,0-0.1,0-0.2,0c-0.1,0-0.1,0-0.1,0.1
					c0,0-0.1,0.1-0.1,0.2c0,0.1,0,0.2,0,0.3v1.9c0,0.2,0,0.4,0,0.6c0,0.2,0.1,0.4,0.2,0.5c0.1,0.1,0.2,0.3,0.3,0.3s0.4,0.1,0.6,0.1
					c0.1,0,0.3,0,0.4-0.1c0.1,0,0.3-0.1,0.4-0.1c0.1-0.1,0.2-0.1,0.3-0.2c0.1-0.1,0.1-0.2,0.2-0.3c0.1-0.2,0.1-0.5,0.1-1v-1.8
					c0-0.3,0-0.4-0.1-0.5c-0.1-0.1-0.2-0.1-0.4-0.1H136.2z"/>
				<path class="st0" d="M142.9,31.7l0.1,1.4h-0.1c-0.1-0.4-0.3-0.7-0.6-0.9s-0.5-0.3-0.9-0.3c-0.3,0-0.5,0.1-0.7,0.2
					c-0.2,0.1-0.4,0.2-0.5,0.4c-0.1,0.2-0.3,0.4-0.3,0.6c-0.1,0.2-0.1,0.5-0.1,0.8c0,0.4,0.1,0.8,0.2,1.2c0.1,0.2,0.2,0.3,0.3,0.5
					c0.1,0.1,0.2,0.2,0.4,0.3c0.1,0.1,0.3,0.1,0.4,0.2c0.1,0,0.3,0.1,0.4,0.1c0.3,0,0.6-0.1,0.9-0.2v-1.3c0-0.1,0-0.2,0-0.3
					c0-0.1,0-0.1,0-0.2c0,0,0-0.1-0.1-0.1c0,0-0.1,0-0.1-0.1c-0.1,0-0.2-0.1-0.4-0.1v-0.1h1.7v0.1h-0.1c-0.1,0-0.1,0-0.2,0
					c-0.1,0-0.1,0-0.1,0.1c0,0-0.1,0.1-0.1,0.2c0,0.1,0,0.2,0,0.3v1.4c-0.1,0.1-0.3,0.1-0.4,0.2c-0.1,0.1-0.2,0.1-0.4,0.1
					c-0.3,0.1-0.5,0.1-0.8,0.1c-0.4,0-0.7-0.1-1-0.2c-0.3-0.1-0.6-0.3-0.8-0.5c-0.2-0.2-0.4-0.4-0.5-0.7c-0.1-0.3-0.2-0.6-0.2-0.9
					c0-0.4,0.1-0.8,0.3-1.1c0.2-0.4,0.5-0.7,0.9-1c0.3-0.2,0.7-0.3,1.2-0.3c0.1,0,0.2,0,0.2,0c0.1,0,0.1,0,0.2,0
					c0.1,0,0.2,0,0.2,0.1c0.1,0,0.2,0.1,0.3,0.1c0.1,0,0.2,0.1,0.2,0.1c0,0,0.1,0,0.1-0.1c0,0,0-0.1,0.1-0.2H142.9z"/>
				<path class="st0" d="M145.9,33.8h2.1v-1.3c0-0.1,0-0.2,0-0.3c0-0.1,0-0.1,0-0.2c0,0,0-0.1-0.1-0.1c0,0-0.1,0-0.1-0.1
					c-0.1-0.1-0.2-0.1-0.3-0.1h-0.2v-0.1h1.9v0.1H149c0,0-0.1,0-0.1,0c0,0-0.1,0-0.1,0c0,0-0.1,0-0.1,0.1c0,0-0.1,0.1-0.1,0.1
					c0,0.1,0,0.2,0,0.4v2.9c0,0.1,0,0.2,0,0.3c0,0.1,0,0.1,0,0.2c0,0,0,0.1,0.1,0.1c0,0,0.1,0,0.1,0.1c0.1,0.1,0.2,0.1,0.3,0.1h0.2
					v0.1h-1.9v-0.1h0.2c0.1,0,0.1,0,0.2,0c0.1,0,0.1,0,0.2-0.1c0,0,0.1-0.1,0.1-0.2c0-0.1,0-0.2,0-0.4v-1.4h-2.1v1.4
					c0,0.1,0,0.2,0,0.3c0,0.1,0,0.1,0,0.2c0,0,0,0.1,0.1,0.1c0,0,0.1,0,0.1,0.1c0.1,0.1,0.2,0.1,0.3,0.1h0.2v0.1h-1.9v-0.1h0.2
					c0.2,0,0.3-0.1,0.4-0.2c0.1-0.1,0.1-0.2,0.1-0.5v-2.9c0-0.1,0-0.2,0-0.3s0-0.1,0-0.2c0,0,0-0.1-0.1-0.1s-0.1,0-0.1-0.1
					c-0.1-0.1-0.2-0.1-0.3-0.1h-0.2v-0.1h1.9v0.1h-0.2c0,0-0.1,0-0.1,0c0,0-0.1,0-0.1,0c0,0-0.1,0-0.1,0.1c0,0-0.1,0.1-0.1,0.1
					c0,0.1,0,0.2,0,0.4V33.8z"/>
				<path class="st0" d="M154.1,31.8v1H154c0-0.3-0.1-0.5-0.2-0.6c-0.1-0.1-0.3-0.2-0.6-0.2h-0.6v3.4c0,0.1,0,0.3,0,0.4
					c0,0.1,0.1,0.2,0.1,0.2c0,0,0.1,0.1,0.1,0.1c0.1,0,0.1,0,0.2,0h0.2v0.1h-1.9v-0.1h0.2c0.1,0,0.1,0,0.2,0c0.1,0,0.1,0,0.1-0.1
					c0,0,0.1-0.1,0.1-0.2c0-0.1,0-0.2,0-0.3V32h-0.5c-0.1,0-0.3,0-0.4,0c-0.1,0-0.2,0.1-0.3,0.1c-0.1,0.1-0.1,0.1-0.2,0.2
					c0,0.1-0.1,0.2-0.1,0.4h-0.1v-1H154.1z"/>
			</g>
		</g>
	</g>
</g>
</svg>
