<?xml version="1.0" encoding="utf-8"?>
<!-- Generator: Adobe Illustrator 21.1.0, SVG Export Plug-In . SVG Version: 6.00 Build 0)  -->
<svg version="1.1" id="レイヤー_1" xmlns="http://www.w3.org/2000/svg" xmlns:xlink="http://www.w3.org/1999/xlink" x="0px"
	 y="0px" width="24px" height="24px" viewBox="0 0 24 24" style="enable-background:new 0 0 24 24;" xml:space="preserve">
<style type="text/css">
	.st0{fill:none;stroke:#858585;stroke-linecap:round;stroke-linejoin:round;stroke-miterlimit:10;}
	.st1{fill:#858585;}
	.st2{fill:none;stroke:#FFFFFF;stroke-linecap:round;stroke-linejoin:round;stroke-miterlimit:10;}
</style>
<g>
	<circle class="st0" cx="12" cy="12" r="11.5"/>
</g>
<g>
	<path class="st1" d="M15.8,10c-0.3-1.7-1.9-3-3.8-3c-1.9,0-3.5,1.3-3.8,3c-2,0.1-3.7,1.6-3.7,3.5c0,2,1.7,3.5,3.9,3.5
		c0.8,0,2.2-0.4,3.6-0.4c1.4,0,2.8,0.4,3.6,0.4c2.2,0,3.9-1.6,3.9-3.5C19.5,11.6,17.9,10.1,15.8,10z"/>
	<g>
		<line class="st2" x1="13.9" y1="15" x2="15.4" y2="13.5"/>
		<line class="st2" x1="8.6" y1="13.5" x2="10" y2="14.9"/>
		<line class="st2" x1="12" y1="12.7" x2="12" y2="14.7"/>
	</g>
</g>
</svg>
