<?xml version="1.0" encoding="utf-8"?>
<!-- Generator: Adobe Illustrator 21.1.0, SVG Export Plug-In . SVG Version: 6.00 Build 0)  -->
<svg version="1.1" id="レイヤー_1" xmlns="http://www.w3.org/2000/svg" xmlns:xlink="http://www.w3.org/1999/xlink" x="0px"
	 y="0px" width="24px" height="24px" viewBox="0 0 24 24" style="enable-background:new 0 0 24 24;" xml:space="preserve">
<style type="text/css">
	.st0{fill:none;stroke:#858585;stroke-miterlimit:10;}
	.st1{fill:#858585;}
</style>
<g>
	<circle class="st0" cx="12" cy="12" r="11.5"/>
</g>
<g>
	<g>
		<circle class="st1" cx="10.7" cy="8" r="1.5"/>
		<circle class="st1" cx="13.3" cy="8" r="1.5"/>
	</g>
	<path class="st1" d="M16.5,10.8h-9c-0.3,0-0.5-0.2-0.5-0.5v0C7,10,7.2,9.8,7.5,9.8h9c0.3,0,0.5,0.2,0.5,0.5v0
		C17,10.5,16.8,10.8,16.5,10.8z"/>
	<path class="st1" d="M17.6,13.5c-0.4-0.5-0.1-1.9-1.7-1.9H8c-1.6,0-1.3,1.4-1.7,1.9c-1.9,2.4-0.7,4,1.7,4c0.4,0,7.4,0,7.9,0
		C18.4,17.5,19.6,15.8,17.6,13.5z"/>
</g>
</svg>
