<?xml version="1.0" encoding="utf-8"?>
<!-- Generator: Adobe Illustrator 21.1.0, SVG Export Plug-In . SVG Version: 6.00 Build 0)  -->
<svg version="1.1" id="レイヤー_1" xmlns="http://www.w3.org/2000/svg" xmlns:xlink="http://www.w3.org/1999/xlink" x="0px"
	 y="0px" width="22.8px" height="18.9px" viewBox="0 0 22.8 18.9" style="enable-background:new 0 0 22.8 18.9;"
	 xml:space="preserve">
<style type="text/css">
	.st0{fill:#2F2F2F;}
</style>
<path class="st0" d="M18.9,13.5l-3.4-3.3c0,0,2.6-1.4,2.7-1.5l0.6-0.6C18.9,8,19,7.9,19,7.8V3.4l-0.7-0.7h-2.6c-0.1,0-0.1,0-0.2,0.1
	l-4,3.8c-0.1,0-0.1,0-0.2,0c-0.1,0-0.1,0-0.2,0l-4-3.8C7.2,2.8,7.1,2.7,7,2.7H4.5L3.8,3.4v4.4c0,0.1,0,0.2,0.1,0.2l0.6,0.6
	c0.1,0.1,2.7,1.5,2.7,1.5l-3.4,3.3c-0.1,0.1-0.1,0.4,0,0.5l1.6,1.6c0.1,0.1,0.4,0.1,0.5,0l5.4-5.4h0h0h0l5.4,5.4
	c0.1,0.1,0.4,0.1,0.5,0l1.6-1.6C19.1,13.8,19.1,13.6,18.9,13.5z M10.3,9c0,0-1.8,0-1.8,0S8.4,9,8.3,9C7.9,8.8,5.7,7.5,5.6,7.4
	C5.5,7.4,5.2,7.3,5.2,7.1V6.4c0-0.2,0.2-0.4,0.4-0.4h1.7c0.1,0,0.1,0,0.2,0C7.4,6.1,10.3,8.9,10.3,9C10.3,8.9,10.4,9,10.3,9z
	 M14.3,9c0,0-1.8,0-1.8,0c-0.1,0-0.1-0.1-0.1-0.1c0,0,2.9-2.8,2.9-2.8c0,0,0.1,0,0.2,0h1.7c0.2,0,0.4,0.2,0.4,0.4v0.6
	c0,0.2-0.2,0.3-0.3,0.4c-0.1,0.1-2.3,1.4-2.7,1.5C14.4,9,14.3,9,14.3,9z"/>
</svg>
