<?xml version="1.0" encoding="utf-8"?>
<!-- Generator: Adobe Illustrator 21.1.0, SVG Export Plug-In . SVG Version: 6.00 Build 0)  -->
<svg version="1.1" id="レイヤー_1" xmlns="http://www.w3.org/2000/svg" xmlns:xlink="http://www.w3.org/1999/xlink" x="0px"
	 y="0px" width="22.8px" height="18.9px" viewBox="0 0 22.8 18.9" style="enable-background:new 0 0 22.8 18.9;"
	 xml:space="preserve">
<style type="text/css">
	.st0{fill:none;stroke:#2F2F2F;stroke-linecap:round;stroke-linejoin:round;stroke-miterlimit:10;}
	.st1{fill:#2F2F2F;}
</style>
<g>
	<polyline class="st0" points="5,10.8 0.5,13.1 11,18.4 22.3,12.7 18.8,10.5 	"/>
	<g>
		<path class="st1" d="M11.3,3.4c0.1-0.3,0.2-0.6,0.2-0.9C11.5,1.1,10.4,0,9,0C7.6,0,6.5,1.1,6.5,2.5c0,0.3,0.1,0.6,0.2,0.9
			C6,4,5.5,5,5.5,6c0,1.8,1.3,3.2,3,3.4V5.3c0-0.3,0.2-0.5,0.5-0.5c0.3,0,0.5,0.2,0.5,0.5v4.1c1.7-0.2,3-1.7,3-3.4
			C12.5,5,12,4,11.3,3.4z"/>
		<rect x="8.5" y="9.4" class="st1" width="1" height="3"/>
	</g>
	<g>
		<path class="st1" d="M17.4,4.9c0.1-0.3,0.2-0.6,0.2-0.9c0-1.4-1.1-2.5-2.5-2.5c-1.4,0-2.5,1.1-2.5,2.5c0,0.3,0.1,0.6,0.2,0.9
			c-0.7,0.6-1.2,1.6-1.2,2.6c0,1.8,1.3,3.2,3,3.4V6.8c0-0.3,0.2-0.5,0.5-0.5c0.3,0,0.5,0.2,0.5,0.5v4.1c1.7-0.2,3-1.7,3-3.4
			C18.6,6.5,18.1,5.5,17.4,4.9z"/>
		<rect x="14.6" y="10.9" class="st1" width="1" height="3"/>
	</g>
</g>
</svg>
