<?xml version="1.0" encoding="utf-8"?>
<!-- Generator: Adobe Illustrator 21.0.0, SVG Export Plug-In . SVG Version: 6.00 Build 0)  -->
<svg version="1.1" id="レイヤー_1" xmlns="http://www.w3.org/2000/svg" xmlns:xlink="http://www.w3.org/1999/xlink" x="0px"
	 y="0px" width="127.5px" height="127.5px" viewBox="0 0 127.5 127.5" style="enable-background:new 0 0 127.5 127.5;"
	 xml:space="preserve">
<style type="text/css">
	.st0{fill:#ECECEC;}
	.st1{fill:#435255;}
	.st2{fill:none;stroke:#435255;stroke-miterlimit:10;}
</style>
<g>
	<circle class="st0" cx="63.7" cy="63.7" r="63.7"/>
	<g>
		<g>
			<path d="M43.4,25.8l0.1,3.1h-0.3c-0.1-0.8-0.5-1.4-1-1.9s-1.1-0.7-1.7-0.7c-0.5,0-0.8,0.1-1.1,0.4S39,27.2,39,27.5
				c0,0.2,0,0.4,0.1,0.5c0.1,0.2,0.3,0.4,0.6,0.6c0.2,0.2,0.7,0.4,1.5,0.8c1.1,0.5,1.8,1,2.2,1.5c0.4,0.5,0.6,1,0.6,1.6
				c0,0.8-0.3,1.4-0.9,2s-1.4,0.8-2.3,0.8c-0.3,0-0.6,0-0.8-0.1s-0.6-0.2-1-0.3c-0.2-0.1-0.4-0.1-0.5-0.1c-0.1,0-0.2,0-0.4,0.1
				s-0.2,0.2-0.3,0.4h-0.3V32h0.3c0.2,1,0.6,1.7,1.2,2.3s1.2,0.8,1.8,0.8c0.5,0,0.9-0.1,1.2-0.4s0.5-0.6,0.5-1
				c0-0.2-0.1-0.4-0.2-0.6s-0.3-0.4-0.5-0.6s-0.7-0.4-1.3-0.7c-0.8-0.4-1.4-0.8-1.8-1.1s-0.7-0.6-0.9-1s-0.3-0.8-0.3-1.2
				c0-0.7,0.3-1.4,0.8-1.9s1.2-0.8,2.1-0.8c0.3,0,0.6,0,0.9,0.1c0.2,0.1,0.5,0.2,0.8,0.3s0.5,0.2,0.6,0.2c0.1,0,0.2,0,0.3-0.1
				s0.1-0.2,0.2-0.5H43.4z"/>
			<path d="M54.1,26v2.5h-0.2c-0.1-0.6-0.3-1-0.5-1.2s-0.4-0.5-0.7-0.6c-0.2-0.1-0.5-0.1-0.9-0.1H51v7.2c0,0.5,0,0.8,0.1,0.9
				c0.1,0.1,0.2,0.2,0.3,0.3c0.2,0.1,0.4,0.1,0.6,0.1h0.3v0.3h-4.9V35h0.3c0.3,0,0.5,0,0.6-0.1c0.1-0.1,0.2-0.2,0.3-0.3
				c0-0.1,0.1-0.4,0.1-0.9v-7.2h-0.7c-0.6,0-1.1,0.1-1.4,0.4c-0.4,0.4-0.6,0.9-0.8,1.6h-0.3V26H54.1z"/>
			<path d="M59.1,26.5v3.8h0.2c0.6,0,1-0.2,1.3-0.6s0.4-0.9,0.5-1.6h0.3V33h-0.3c-0.1-0.5-0.2-1-0.3-1.3s-0.4-0.6-0.6-0.7
				s-0.6-0.2-1-0.2v2.6c0,0.5,0,0.8,0.1,0.9s0.1,0.2,0.2,0.3s0.3,0.1,0.6,0.1h0.6c0.9,0,1.6-0.2,2.1-0.6s0.9-1,1.1-1.8H64l-0.4,2.9
				h-8V35h0.3c0.3,0,0.5,0,0.6-0.1c0.1-0.1,0.2-0.2,0.3-0.3c0.1-0.1,0.1-0.4,0.1-0.9v-6.1c0-0.4,0-0.7,0-0.8c0-0.2-0.1-0.3-0.3-0.4
				c-0.2-0.1-0.4-0.2-0.7-0.2h-0.3V26h7.8v2.7h-0.3c-0.1-0.7-0.3-1.2-0.6-1.4s-0.6-0.5-1-0.6c-0.3-0.1-0.7-0.1-1.4-0.1H59.1z"/>
			<path d="M69.1,31.1v2.6c0,0.5,0,0.8,0.1,0.9s0.2,0.2,0.3,0.3S70,35,70.4,35v0.3h-4.7V35c0.4,0,0.7,0,0.9-0.1s0.3-0.2,0.3-0.3
				s0.1-0.4,0.1-0.9v-6c0-0.5,0-0.8-0.1-0.9s-0.2-0.2-0.3-0.3s-0.4-0.1-0.9-0.1V26h4c1.3,0,2.3,0.2,2.9,0.7s0.9,1.1,0.9,1.8
				c0,0.6-0.2,1.1-0.6,1.5s-0.9,0.7-1.5,0.9C70.9,31,70.2,31.1,69.1,31.1z M69.1,26.5v4c0.2,0,0.3,0,0.3,0c0.6,0,1-0.2,1.3-0.5
				s0.5-0.8,0.5-1.5c0-0.7-0.2-1.2-0.5-1.5s-0.7-0.5-1.3-0.5H69.1z"/>
			<path d="M79.1,31.8l4.4-6h0.8v6h0.8v1.4h-0.8v2.1h-1.9v-2.1h-3.4V31.8z M79.8,31.8h2.7v-3.7L79.8,31.8z"/>
			<path d="M88.2,33.2c0.3,0,0.6,0.1,0.8,0.3c0.2,0.2,0.3,0.5,0.3,0.8s-0.1,0.6-0.3,0.8c-0.2,0.2-0.5,0.3-0.8,0.3s-0.6-0.1-0.8-0.3
				c-0.2-0.2-0.3-0.5-0.3-0.8s0.1-0.6,0.3-0.8C87.7,33.3,87.9,33.2,88.2,33.2z"/>
		</g>
	</g>
	<g>
		<g>
			<polygon class="st1" points="64.5,59.7 87.1,59.7 79.1,46.8 64.5,46.8 			"/>
			<polygon class="st1" points="63,46.8 48.4,46.8 40.3,59.7 63,59.7 			"/>
		</g>
		<g>
			<rect x="40.3" y="61.4" class="st1" width="46.8" height="33.9"/>
			<g>
				<rect x="55.4" y="74" class="st0" width="16.6" height="9.7"/>
				<line class="st2" x1="58.2" y1="76.5" x2="69.1" y2="76.5"/>
				<line class="st2" x1="58.2" y1="78.8" x2="65.3" y2="78.8"/>
				<line class="st2" x1="67.2" y1="80.9" x2="69.1" y2="80.9"/>
				<line class="st2" x1="58.2" y1="80.9" x2="66.1" y2="80.9"/>
			</g>
		</g>
	</g>
</g>
</svg>
