<?xml version="1.0" encoding="utf-8"?>
<!-- Generator: Adobe Illustrator 21.0.0, SVG Export Plug-In . SVG Version: 6.00 Build 0)  -->
<svg version="1.1" id="レイヤー_1" xmlns="http://www.w3.org/2000/svg" xmlns:xlink="http://www.w3.org/1999/xlink" x="0px"
	 y="0px" width="127.5px" height="127.5px" viewBox="0 0 127.5 127.5" style="enable-background:new 0 0 127.5 127.5;"
	 xml:space="preserve">
<style type="text/css">
	.st0{fill:#ECECEC;}
	.st1{fill:#435255;}
	.st2{fill:none;stroke:#ECECEC;stroke-miterlimit:10;}
	.st3{fill:none;stroke:#435255;stroke-width:2.5;stroke-miterlimit:10;}
</style>
<g>
	<circle class="st0" cx="63.7" cy="63.7" r="63.7"/>
	<g>
		<g>
			<path d="M43.8,25.8l0.1,3.1h-0.3c-0.1-0.8-0.5-1.4-1-1.9s-1.1-0.7-1.7-0.7c-0.5,0-0.8,0.1-1.1,0.4s-0.4,0.5-0.4,0.9
				c0,0.2,0,0.4,0.1,0.5c0.1,0.2,0.3,0.4,0.6,0.6c0.2,0.2,0.7,0.4,1.5,0.8c1.1,0.5,1.8,1,2.2,1.5c0.4,0.5,0.6,1,0.6,1.6
				c0,0.8-0.3,1.4-0.9,2s-1.4,0.8-2.3,0.8c-0.3,0-0.6,0-0.8-0.1s-0.6-0.2-1-0.3c-0.2-0.1-0.4-0.1-0.5-0.1c-0.1,0-0.2,0-0.4,0.1
				s-0.2,0.2-0.3,0.4h-0.3V32h0.3c0.2,1,0.6,1.7,1.2,2.3s1.2,0.8,1.8,0.8c0.5,0,0.9-0.1,1.2-0.4s0.5-0.6,0.5-1
				c0-0.2-0.1-0.4-0.2-0.6s-0.3-0.4-0.5-0.6s-0.7-0.4-1.3-0.7c-0.8-0.4-1.4-0.8-1.8-1.1s-0.7-0.6-0.9-1s-0.3-0.8-0.3-1.2
				c0-0.7,0.3-1.4,0.8-1.9s1.2-0.8,2.1-0.8c0.3,0,0.6,0,0.9,0.1c0.2,0.1,0.5,0.2,0.8,0.3s0.5,0.2,0.6,0.2c0.1,0,0.2,0,0.3-0.1
				s0.1-0.2,0.2-0.5H43.8z"/>
			<path d="M54.5,26v2.5h-0.2c-0.1-0.6-0.3-1-0.5-1.2s-0.4-0.5-0.7-0.6c-0.2-0.1-0.5-0.1-0.9-0.1h-0.7v7.2c0,0.5,0,0.8,0.1,0.9
				c0.1,0.1,0.2,0.2,0.3,0.3C52,35,52.2,35,52.5,35h0.3v0.3h-4.9V35h0.3c0.3,0,0.5,0,0.6-0.1c0.1-0.1,0.2-0.2,0.3-0.3
				c0-0.1,0.1-0.4,0.1-0.9v-7.2h-0.7c-0.6,0-1.1,0.1-1.4,0.4c-0.4,0.4-0.6,0.9-0.8,1.6h-0.3V26H54.5z"/>
			<path d="M59.5,26.5v3.8h0.2c0.6,0,1-0.2,1.3-0.6s0.4-0.9,0.5-1.6h0.3V33h-0.3c-0.1-0.5-0.2-1-0.3-1.3c-0.2-0.3-0.4-0.6-0.6-0.7
				s-0.6-0.2-1-0.2v2.6c0,0.5,0,0.8,0.1,0.9s0.1,0.2,0.2,0.3s0.3,0.1,0.6,0.1H61c0.9,0,1.6-0.2,2.1-0.6s0.9-1,1.1-1.8h0.3L64,35.3
				h-8V35h0.3c0.3,0,0.5,0,0.6-0.1c0.1-0.1,0.2-0.2,0.3-0.3c0.1-0.1,0.1-0.4,0.1-0.9v-6.1c0-0.4,0-0.7,0-0.8c0-0.2-0.1-0.3-0.3-0.4
				c-0.2-0.1-0.4-0.2-0.7-0.2H56V26h7.8v2.7h-0.3c-0.1-0.7-0.3-1.2-0.6-1.4s-0.6-0.5-1-0.6c-0.3-0.1-0.7-0.1-1.4-0.1H59.5z"/>
			<path d="M69.5,31.1v2.6c0,0.5,0,0.8,0.1,0.9s0.2,0.2,0.3,0.3s0.4,0.1,0.9,0.1v0.3h-4.7V35c0.4,0,0.7,0,0.9-0.1s0.3-0.2,0.3-0.3
				s0.1-0.4,0.1-0.9v-6c0-0.5,0-0.8-0.1-0.9s-0.2-0.2-0.3-0.3s-0.4-0.1-0.9-0.1V26h4c1.3,0,2.3,0.2,2.9,0.7s0.9,1.1,0.9,1.8
				c0,0.6-0.2,1.1-0.6,1.5s-0.9,0.7-1.5,0.9C71.3,31,70.6,31.1,69.5,31.1z M69.5,26.5v4c0.2,0,0.3,0,0.3,0c0.6,0,1-0.2,1.3-0.5
				s0.5-0.8,0.5-1.5c0-0.7-0.2-1.2-0.5-1.5s-0.7-0.5-1.3-0.5H69.5z"/>
			<path d="M83.8,25.8v7.6c0,0.6,0,0.9,0.1,1.1s0.2,0.3,0.3,0.4s0.4,0.2,0.8,0.2h0.2v0.3h-4.9V35h0.2c0.4,0,0.7,0,0.8-0.1
				s0.3-0.2,0.3-0.4s0.1-0.5,0.1-1.1v-4.8c0-0.4,0-0.7-0.1-0.8s-0.1-0.2-0.2-0.3s-0.2-0.1-0.4-0.1c-0.2,0-0.5,0.1-0.8,0.2l-0.1-0.2
				l3.4-1.6H83.8z"/>
			<path d="M87.8,33.2c0.3,0,0.6,0.1,0.8,0.3c0.2,0.2,0.3,0.5,0.3,0.8s-0.1,0.6-0.3,0.8c-0.2,0.2-0.5,0.3-0.8,0.3s-0.6-0.1-0.8-0.3
				c-0.2-0.2-0.3-0.5-0.3-0.8s0.1-0.6,0.3-0.8C87.2,33.3,87.5,33.2,87.8,33.2z"/>
		</g>
	</g>
	<g>
		<g>
			<path class="st1" d="M45.1,59.2l6.3,20.4c0.2,0.5,0.6,0.8,1.1,0.8h31.6c0.6,0,1-0.4,1.2-0.9l4.3-18.9c0.2-0.7-0.4-1.4-1.2-1.4
				H45.1"/>
		</g>
		<g>
			<line class="st2" x1="56.8" y1="64.7" x2="80.5" y2="64.7"/>
			<line class="st2" x1="56.8" y1="69.8" x2="80.5" y2="69.8"/>
			<line class="st2" x1="56.8" y1="74.9" x2="80.5" y2="74.9"/>
		</g>
		<g>
			<circle class="st3" cx="59.1" cy="95.5" r="3.7"/>
			<circle class="st3" cx="79.3" cy="95.5" r="3.7"/>
			<polyline class="st3" points="30.6,54.5 43.8,54.5 54.9,87.4 84.7,87.4 			"/>
		</g>
	</g>
</g>
</svg>
